<svg width="330" height="62" viewBox="0 0 330 62" fill="none" xmlns="http://www.w3.org/2000/svg">
<path d="M0.189941 0.585938H12.3301C14.8698 0.585938 17.05 0.968424 18.8706 1.7334C20.6912 2.49837 22.0911 3.63053 23.0703 5.12988C24.0495 6.62923 24.5391 8.47282 24.5391 10.6606C24.5391 12.3895 24.2331 13.8888 23.6211 15.1587C23.0091 16.4285 22.1447 17.4919 21.0278 18.3486C19.9263 19.2054 18.6258 19.8786 17.1265 20.3682L15.1528 21.3779H4.43555L4.38965 16.3979H12.3989C13.6994 16.3979 14.778 16.1685 15.6348 15.7095C16.4915 15.2505 17.1341 14.6156 17.5625 13.8047C18.0062 12.9938 18.228 12.0682 18.228 11.0278C18.228 9.91097 18.0138 8.9471 17.5854 8.13623C17.1571 7.31006 16.5068 6.67513 15.6348 6.23145C14.7627 5.78776 13.6611 5.56592 12.3301 5.56592H6.50098V34H0.189941V0.585938ZM19.0542 34L11.3203 19.0371L17.9985 19.0142L25.8242 33.6787V34H19.0542Z" fill="white"/>
<path d="M40.0527 34H32.8467L32.8926 29.043H40.0527C41.9958 29.043 43.6252 28.6146 44.9409 27.7578C46.2567 26.8857 47.2511 25.6388 47.9243 24.0171C48.5975 22.38 48.9341 20.4217 48.9341 18.1421V16.4209C48.9341 14.6615 48.7428 13.1086 48.3604 11.7622C47.9779 10.4159 47.4118 9.28369 46.6621 8.36572C45.9277 7.44775 45.0174 6.75163 43.9312 6.27734C42.8449 5.80306 41.598 5.56592 40.1904 5.56592H32.709V0.585938H40.1904C42.4242 0.585938 44.459 0.960775 46.2949 1.71045C48.1462 2.46012 49.745 3.53874 51.0913 4.94629C52.453 6.33854 53.4933 8.00618 54.2124 9.94922C54.9468 11.8923 55.314 14.0648 55.314 16.4668V18.1421C55.314 20.5288 54.9468 22.7013 54.2124 24.6597C53.4933 26.6027 52.453 28.2703 51.0913 29.6626C49.745 31.0549 48.1385 32.1258 46.272 32.8755C44.4054 33.6252 42.3324 34 40.0527 34ZM36.3809 0.585938V34H30.0698V0.585938H36.3809Z" fill="white"/>
<path d="M63.438 0.585938H68.8999L78.0337 25.7383L87.1445 0.585938H92.6294L80.2139 34H75.8306L63.438 0.585938ZM60.6841 0.585938H66.0312L66.9951 23.6958V34H60.6841V0.585938ZM90.0132 0.585938H95.3833V34H89.0723V23.6958L90.0132 0.585938Z" fill="white"/>
<path d="M115.464 0.585938V34H109.176V0.585938H115.464ZM125.837 0.585938V5.56592H98.9175V0.585938H125.837Z" fill="white"/>
<path d="M158.081 25.3252C158.081 24.6826 157.981 24.1089 157.782 23.604C157.599 23.0838 157.254 22.6172 156.75 22.2041C156.26 21.7757 155.564 21.3626 154.661 20.9648C153.774 20.5518 152.626 20.1234 151.219 19.6797C149.658 19.1901 148.205 18.6393 146.858 18.0273C145.512 17.4154 144.326 16.7039 143.301 15.8931C142.292 15.0822 141.504 14.1489 140.938 13.0933C140.371 12.0223 140.088 10.783 140.088 9.37549C140.088 7.99854 140.379 6.74398 140.96 5.61182C141.557 4.47965 142.399 3.50814 143.485 2.69727C144.571 1.87109 145.849 1.23617 147.317 0.79248C148.801 0.348796 150.438 0.126953 152.229 0.126953C154.707 0.126953 156.849 0.578288 158.654 1.48096C160.475 2.38363 161.882 3.60758 162.877 5.15283C163.871 6.69808 164.369 8.43457 164.369 10.3623H158.081C158.081 9.32194 157.859 8.40397 157.415 7.6084C156.987 6.81283 156.329 6.18555 155.441 5.72656C154.569 5.26758 153.468 5.03809 152.137 5.03809C150.852 5.03809 149.781 5.22933 148.924 5.61182C148.082 5.9943 147.447 6.51449 147.019 7.17236C146.606 7.83024 146.399 8.56462 146.399 9.37549C146.399 9.98747 146.545 10.5382 146.835 11.0278C147.126 11.5021 147.562 11.9535 148.144 12.3818C148.725 12.7949 149.444 13.1851 150.301 13.5522C151.173 13.9041 152.183 14.256 153.33 14.6079C155.166 15.1587 156.772 15.7707 158.149 16.4438C159.542 17.117 160.697 17.882 161.615 18.7388C162.548 19.5955 163.244 20.5594 163.703 21.6304C164.177 22.7013 164.415 23.9176 164.415 25.2793C164.415 26.7174 164.132 28.0026 163.565 29.1348C162.999 30.2669 162.188 31.2308 161.133 32.0264C160.077 32.8219 158.807 33.4263 157.323 33.8394C155.854 34.2524 154.21 34.459 152.389 34.459C150.767 34.459 149.161 34.2448 147.57 33.8164C145.994 33.3727 144.563 32.7148 143.278 31.8428C141.993 30.9554 140.968 29.8385 140.203 28.4922C139.438 27.1305 139.056 25.5394 139.056 23.7188H145.39C145.39 24.7744 145.558 25.6771 145.895 26.4268C146.246 27.1611 146.736 27.7655 147.363 28.2397C148.006 28.6987 148.756 29.0353 149.612 29.2495C150.469 29.4637 151.395 29.5708 152.389 29.5708C153.674 29.5708 154.73 29.3949 155.556 29.043C156.398 28.6758 157.025 28.1709 157.438 27.5283C157.866 26.8857 158.081 26.1514 158.081 25.3252Z" fill="white"/>
<path d="M183.623 0.585938V34H177.335V0.585938H183.623ZM193.996 0.585938V5.56592H167.077V0.585938H193.996Z" fill="white"/>
<path d="M216.785 0.585938H223.096V22.7778C223.096 25.3328 222.545 27.4824 221.443 29.2266C220.342 30.9554 218.842 32.2635 216.945 33.1509C215.048 34.0229 212.891 34.459 210.474 34.459C208.026 34.459 205.846 34.0229 203.933 33.1509C202.021 32.2635 200.521 30.9554 199.435 29.2266C198.349 27.4824 197.806 25.3328 197.806 22.7778V0.585938H204.117V22.7778C204.117 24.3384 204.377 25.6159 204.897 26.6104C205.417 27.5895 206.152 28.3162 207.1 28.7905C208.049 29.2648 209.173 29.502 210.474 29.502C211.789 29.502 212.914 29.2648 213.847 28.7905C214.796 28.3162 215.522 27.5895 216.027 26.6104C216.532 25.6159 216.785 24.3384 216.785 22.7778V0.585938Z" fill="white"/>
<path d="M239.068 34H231.862L231.908 29.043H239.068C241.011 29.043 242.641 28.6146 243.957 27.7578C245.272 26.8857 246.267 25.6388 246.94 24.0171C247.613 22.38 247.95 20.4217 247.95 18.1421V16.4209C247.95 14.6615 247.758 13.1086 247.376 11.7622C246.993 10.4159 246.427 9.28369 245.678 8.36572C244.943 7.44775 244.033 6.75163 242.947 6.27734C241.861 5.80306 240.614 5.56592 239.206 5.56592H231.725V0.585938H239.206C241.44 0.585938 243.475 0.960775 245.311 1.71045C247.162 2.46012 248.761 3.53874 250.107 4.94629C251.469 6.33854 252.509 8.00618 253.228 9.94922C253.962 11.8923 254.33 14.0648 254.33 16.4668V18.1421C254.33 20.5288 253.962 22.7013 253.228 24.6597C252.509 26.6027 251.469 28.2703 250.107 29.6626C248.761 31.0549 247.154 32.1258 245.288 32.8755C243.421 33.6252 241.348 34 239.068 34ZM235.396 0.585938V34H229.085V0.585938H235.396Z" fill="white"/>
<path d="M266.424 0.585938V34H260.113V0.585938H266.424Z" fill="white"/>
<path d="M300.297 16.4438V18.165C300.297 20.6895 299.96 22.9614 299.287 24.981C298.614 26.9852 297.658 28.6911 296.418 30.0986C295.179 31.5062 293.703 32.5848 291.989 33.3345C290.276 34.0841 288.371 34.459 286.275 34.459C284.209 34.459 282.312 34.0841 280.583 33.3345C278.87 32.5848 277.386 31.5062 276.131 30.0986C274.877 28.6911 273.905 26.9852 273.217 24.981C272.528 22.9614 272.184 20.6895 272.184 18.165V16.4438C272.184 13.9041 272.528 11.6322 273.217 9.62793C273.905 7.6237 274.869 5.91781 276.108 4.51025C277.348 3.0874 278.824 2.00114 280.538 1.25146C282.266 0.50179 284.164 0.126953 286.229 0.126953C288.325 0.126953 290.23 0.50179 291.943 1.25146C293.657 2.00114 295.133 3.0874 296.373 4.51025C297.627 5.91781 298.591 7.6237 299.264 9.62793C299.953 11.6322 300.297 13.9041 300.297 16.4438ZM293.917 18.165V16.3979C293.917 14.5773 293.749 12.9785 293.412 11.6016C293.076 10.2093 292.578 9.0389 291.92 8.09033C291.263 7.14176 290.452 6.43034 289.488 5.95605C288.524 5.46647 287.438 5.22168 286.229 5.22168C285.005 5.22168 283.919 5.46647 282.97 5.95605C282.037 6.43034 281.241 7.14176 280.583 8.09033C279.926 9.0389 279.421 10.2093 279.069 11.6016C278.732 12.9785 278.564 14.5773 278.564 16.3979V18.165C278.564 19.9704 278.732 21.5692 279.069 22.9614C279.421 24.3537 279.926 25.5317 280.583 26.4956C281.257 27.4442 282.068 28.1632 283.016 28.6528C283.965 29.1424 285.051 29.3872 286.275 29.3872C287.499 29.3872 288.585 29.1424 289.534 28.6528C290.482 28.1632 291.278 27.4442 291.92 26.4956C292.578 25.5317 293.076 24.3537 293.412 22.9614C293.749 21.5692 293.917 19.9704 293.917 18.165Z" fill="white"/>
<path d="M323.131 25.3252C323.131 24.6826 323.032 24.1089 322.833 23.604C322.649 23.0838 322.305 22.6172 321.8 22.2041C321.311 21.7757 320.615 21.3626 319.712 20.9648C318.825 20.5518 317.677 20.1234 316.27 19.6797C314.709 19.1901 313.256 18.6393 311.909 18.0273C310.563 17.4154 309.377 16.7039 308.352 15.8931C307.342 15.0822 306.554 14.1489 305.988 13.0933C305.422 12.0223 305.139 10.783 305.139 9.37549C305.139 7.99854 305.43 6.74398 306.011 5.61182C306.608 4.47965 307.449 3.50814 308.536 2.69727C309.622 1.87109 310.899 1.23617 312.368 0.79248C313.852 0.348796 315.489 0.126953 317.279 0.126953C319.758 0.126953 321.9 0.578288 323.705 1.48096C325.526 2.38363 326.933 3.60758 327.928 5.15283C328.922 6.69808 329.419 8.43457 329.419 10.3623H323.131C323.131 9.32194 322.91 8.40397 322.466 7.6084C322.037 6.81283 321.38 6.18555 320.492 5.72656C319.62 5.26758 318.519 5.03809 317.188 5.03809C315.902 5.03809 314.831 5.22933 313.975 5.61182C313.133 5.9943 312.498 6.51449 312.07 7.17236C311.657 7.83024 311.45 8.56462 311.45 9.37549C311.45 9.98747 311.596 10.5382 311.886 11.0278C312.177 11.5021 312.613 11.9535 313.194 12.3818C313.776 12.7949 314.495 13.1851 315.352 13.5522C316.224 13.9041 317.233 14.256 318.381 14.6079C320.217 15.1587 321.823 15.7707 323.2 16.4438C324.592 17.117 325.748 17.882 326.666 18.7388C327.599 19.5955 328.295 20.5594 328.754 21.6304C329.228 22.7013 329.465 23.9176 329.465 25.2793C329.465 26.7174 329.182 28.0026 328.616 29.1348C328.05 30.2669 327.239 31.2308 326.184 32.0264C325.128 32.8219 323.858 33.4263 322.374 33.8394C320.905 34.2524 319.261 34.459 317.44 34.459C315.818 34.459 314.212 34.2448 312.621 33.8164C311.045 33.3727 309.614 32.7148 308.329 31.8428C307.044 30.9554 306.019 29.8385 305.254 28.4922C304.489 27.1305 304.106 25.5394 304.106 23.7188H310.44C310.44 24.7744 310.609 25.6771 310.945 26.4268C311.297 27.1611 311.787 27.7655 312.414 28.2397C313.057 28.6987 313.806 29.0353 314.663 29.2495C315.52 29.4637 316.445 29.5708 317.44 29.5708C318.725 29.5708 319.781 29.3949 320.607 29.043C321.448 28.6758 322.076 28.1709 322.489 27.5283C322.917 26.8857 323.131 26.1514 323.131 25.3252Z" fill="white"/>
<path d="M79.9351 50.5244L76.3242 61H74.1411L78.6899 48.9141H80.0845L79.9351 50.5244ZM82.9565 61L79.3374 50.5244L79.1797 48.9141H80.5825L85.1479 61H82.9565ZM82.7822 56.5176V58.1694H76.208V56.5176H82.7822Z" fill="white"/>
<path d="M94.0713 59.3481V61H88.0034V59.3481H94.0713ZM88.5845 48.9141V61H86.501V48.9141H88.5845Z" fill="white"/>
<path d="M103.252 59.3481V61H97.1841V59.3481H103.252ZM97.7651 48.9141V61H95.6816V48.9141H97.7651Z" fill="white"/>
<path d="M109.096 48.9141H113.371C114.289 48.9141 115.072 49.0524 115.72 49.3291C116.367 49.6058 116.862 50.0153 117.206 50.5576C117.554 51.0944 117.729 51.7585 117.729 52.5498C117.729 53.153 117.618 53.6842 117.396 54.1436C117.175 54.6029 116.862 54.9902 116.458 55.3057C116.055 55.6156 115.573 55.8563 115.014 56.0278L114.383 56.335H110.54L110.523 54.6831H113.404C113.902 54.6831 114.317 54.5946 114.649 54.4175C114.981 54.2404 115.23 53.9997 115.396 53.6953C115.568 53.3854 115.653 53.0368 115.653 52.6494C115.653 52.2288 115.57 51.8636 115.404 51.5537C115.244 51.2383 114.995 50.9976 114.657 50.8315C114.32 50.66 113.891 50.5742 113.371 50.5742H111.179V61H109.096V48.9141ZM115.994 61L113.155 55.5713L115.338 55.563L118.218 60.8921V61H115.994Z" fill="white"/>
<path d="M122.028 48.9141V61H119.945V48.9141H122.028Z" fill="white"/>
<path d="M133.898 54.8242V59.4395C133.727 59.6663 133.458 59.9154 133.093 60.1865C132.734 60.4521 132.255 60.6818 131.657 60.8755C131.06 61.0692 130.315 61.166 129.424 61.166C128.666 61.166 127.972 61.0387 127.341 60.7842C126.71 60.5241 126.165 60.145 125.706 59.647C125.252 59.1489 124.9 58.543 124.651 57.8291C124.402 57.1097 124.278 56.2907 124.278 55.3721V54.5337C124.278 53.6206 124.391 52.8071 124.618 52.0933C124.851 51.3739 125.183 50.7651 125.614 50.2671C126.046 49.769 126.566 49.3927 127.175 49.1382C127.789 48.8781 128.484 48.748 129.258 48.748C130.249 48.748 131.068 48.9141 131.715 49.2461C132.368 49.5726 132.872 50.0264 133.226 50.6074C133.58 51.1885 133.804 51.8525 133.898 52.5996H131.856C131.79 52.179 131.66 51.8027 131.466 51.4707C131.278 51.1387 131.007 50.8786 130.653 50.6904C130.304 50.4967 129.85 50.3999 129.292 50.3999C128.81 50.3999 128.387 50.4912 128.021 50.6738C127.656 50.8564 127.352 51.1248 127.108 51.479C126.87 51.8332 126.691 52.2648 126.569 52.7739C126.447 53.283 126.386 53.8641 126.386 54.5171V55.3721C126.386 56.0361 126.455 56.6255 126.594 57.1401C126.738 57.6548 126.942 58.0892 127.208 58.4434C127.479 58.7975 127.808 59.0659 128.196 59.2485C128.583 59.4256 129.02 59.5142 129.507 59.5142C129.983 59.5142 130.373 59.4754 130.678 59.3979C130.982 59.3149 131.223 59.2181 131.4 59.1074C131.583 58.9912 131.724 58.8805 131.823 58.7754V56.3765H129.308V54.8242H133.898Z" fill="white"/>
<path d="M144.191 53.9609V55.6128H137.775V53.9609H144.191ZM138.29 48.9141V61H136.206V48.9141H138.29ZM145.793 48.9141V61H143.718V48.9141H145.793Z" fill="white"/>
<path d="M152.999 48.9141V61H150.932V48.9141H152.999ZM156.792 48.9141V50.5742H147.171V48.9141H156.792Z" fill="white"/>
<path d="M164.611 57.8872C164.611 57.6382 164.573 57.4168 164.495 57.2231C164.423 57.0295 164.293 56.8524 164.105 56.6919C163.917 56.5314 163.651 56.3765 163.308 56.2271C162.971 56.0721 162.539 55.9144 162.013 55.7539C161.438 55.5768 160.906 55.3804 160.419 55.1646C159.938 54.9432 159.517 54.6886 159.158 54.4009C158.798 54.1076 158.519 53.7728 158.319 53.3965C158.12 53.0146 158.021 52.5747 158.021 52.0767C158.021 51.5841 158.123 51.1359 158.328 50.7319C158.538 50.328 158.834 49.9793 159.216 49.686C159.603 49.3872 160.06 49.1576 160.585 48.9971C161.111 48.8311 161.692 48.748 162.329 48.748C163.225 48.748 163.997 48.9141 164.645 49.2461C165.298 49.5781 165.798 50.0236 166.147 50.5825C166.501 51.1414 166.678 51.7585 166.678 52.4336H164.611C164.611 52.0352 164.526 51.6838 164.354 51.3794C164.188 51.0695 163.933 50.826 163.59 50.6489C163.253 50.4718 162.824 50.3833 162.304 50.3833C161.811 50.3833 161.402 50.458 161.075 50.6074C160.749 50.7568 160.505 50.9588 160.345 51.2134C160.184 51.4679 160.104 51.7557 160.104 52.0767C160.104 52.3035 160.157 52.5111 160.262 52.6992C160.367 52.8818 160.527 53.0534 160.743 53.2139C160.959 53.3688 161.23 53.5155 161.557 53.6538C161.883 53.7922 162.268 53.925 162.71 54.0522C163.38 54.2515 163.964 54.4728 164.462 54.7163C164.96 54.9543 165.375 55.2254 165.707 55.5298C166.039 55.8341 166.288 56.18 166.454 56.5674C166.62 56.9492 166.703 57.3836 166.703 57.8706C166.703 58.3797 166.601 58.839 166.396 59.2485C166.191 59.6525 165.898 59.9984 165.516 60.2861C165.14 60.5684 164.686 60.7869 164.155 60.9419C163.629 61.0913 163.042 61.166 162.395 61.166C161.814 61.166 161.241 61.0885 160.677 60.9336C160.118 60.7786 159.609 60.5435 159.149 60.228C158.69 59.9071 158.325 59.5086 158.054 59.0327C157.783 58.5513 157.647 57.9896 157.647 57.3477H159.73C159.73 57.7406 159.797 58.0754 159.93 58.3521C160.068 58.6287 160.259 58.8556 160.502 59.0327C160.746 59.2043 161.028 59.3315 161.349 59.4146C161.676 59.4976 162.024 59.5391 162.395 59.5391C162.882 59.5391 163.289 59.4699 163.615 59.3315C163.947 59.1932 164.196 58.9995 164.362 58.7505C164.528 58.5015 164.611 58.2137 164.611 57.8872Z" fill="white"/>
<path d="M172.779 48.9141H177.054C177.973 48.9141 178.756 49.0524 179.403 49.3291C180.051 49.6058 180.546 50.0153 180.889 50.5576C181.238 51.0944 181.412 51.7585 181.412 52.5498C181.412 53.153 181.301 53.6842 181.08 54.1436C180.859 54.6029 180.546 54.9902 180.142 55.3057C179.738 55.6156 179.257 55.8563 178.698 56.0278L178.067 56.335H174.224L174.207 54.6831H177.087C177.585 54.6831 178 54.5946 178.333 54.4175C178.665 54.2404 178.914 53.9997 179.08 53.6953C179.251 53.3854 179.337 53.0368 179.337 52.6494C179.337 52.2288 179.254 51.8636 179.088 51.5537C178.927 51.2383 178.678 50.9976 178.341 50.8315C178.003 50.66 177.574 50.5742 177.054 50.5742H174.863V61H172.779V48.9141ZM179.677 61L176.838 55.5713L179.021 55.563L181.902 60.8921V61H179.677Z" fill="white"/>
<path d="M191.398 59.3481V61H184.981V59.3481H191.398ZM185.571 48.9141V61H183.487V48.9141H185.571ZM190.56 53.9609V55.5879H184.981V53.9609H190.56ZM191.356 48.9141V50.5742H184.981V48.9141H191.356Z" fill="white"/>
<path d="M199.458 57.8872C199.458 57.6382 199.419 57.4168 199.342 57.2231C199.27 57.0295 199.14 56.8524 198.952 56.6919C198.764 56.5314 198.498 56.3765 198.155 56.2271C197.817 56.0721 197.386 55.9144 196.86 55.7539C196.284 55.5768 195.753 55.3804 195.266 55.1646C194.785 54.9432 194.364 54.6886 194.004 54.4009C193.645 54.1076 193.365 53.7728 193.166 53.3965C192.967 53.0146 192.867 52.5747 192.867 52.0767C192.867 51.5841 192.97 51.1359 193.174 50.7319C193.385 50.328 193.681 49.9793 194.062 49.686C194.45 49.3872 194.906 49.1576 195.432 48.9971C195.958 48.8311 196.539 48.748 197.175 48.748C198.072 48.748 198.844 48.9141 199.491 49.2461C200.144 49.5781 200.645 50.0236 200.994 50.5825C201.348 51.1414 201.525 51.7585 201.525 52.4336H199.458C199.458 52.0352 199.372 51.6838 199.201 51.3794C199.035 51.0695 198.78 50.826 198.437 50.6489C198.099 50.4718 197.671 50.3833 197.15 50.3833C196.658 50.3833 196.248 50.458 195.922 50.6074C195.595 50.7568 195.352 50.9588 195.191 51.2134C195.031 51.4679 194.951 51.7557 194.951 52.0767C194.951 52.3035 195.003 52.5111 195.108 52.6992C195.214 52.8818 195.374 53.0534 195.59 53.2139C195.806 53.3688 196.077 53.5155 196.403 53.6538C196.73 53.7922 197.114 53.925 197.557 54.0522C198.227 54.2515 198.811 54.4728 199.309 54.7163C199.807 54.9543 200.222 55.2254 200.554 55.5298C200.886 55.8341 201.135 56.18 201.301 56.5674C201.467 56.9492 201.55 57.3836 201.55 57.8706C201.55 58.3797 201.447 58.839 201.243 59.2485C201.038 59.6525 200.745 59.9984 200.363 60.2861C199.986 60.5684 199.533 60.7869 199.001 60.9419C198.476 61.0913 197.889 61.166 197.242 61.166C196.661 61.166 196.088 61.0885 195.523 60.9336C194.965 60.7786 194.455 60.5435 193.996 60.228C193.537 59.9071 193.172 59.5086 192.9 59.0327C192.629 58.5513 192.494 57.9896 192.494 57.3477H194.577C194.577 57.7406 194.644 58.0754 194.776 58.3521C194.915 58.6287 195.106 58.8556 195.349 59.0327C195.593 59.2043 195.875 59.3315 196.196 59.4146C196.522 59.4976 196.871 59.5391 197.242 59.5391C197.729 59.5391 198.135 59.4699 198.462 59.3315C198.794 59.1932 199.043 58.9995 199.209 58.7505C199.375 58.5015 199.458 58.2137 199.458 57.8872Z" fill="white"/>
<path d="M211.303 59.3481V61H204.887V59.3481H211.303ZM205.476 48.9141V61H203.393V48.9141H205.476ZM210.465 53.9609V55.5879H204.887V53.9609H210.465ZM211.262 48.9141V50.5742H204.887V48.9141H211.262Z" fill="white"/>
<path d="M213.005 48.9141H217.28C218.198 48.9141 218.981 49.0524 219.629 49.3291C220.276 49.6058 220.772 50.0153 221.115 50.5576C221.463 51.0944 221.638 51.7585 221.638 52.5498C221.638 53.153 221.527 53.6842 221.306 54.1436C221.084 54.6029 220.772 54.9902 220.368 55.3057C219.964 55.6156 219.482 55.8563 218.923 56.0278L218.292 56.335H214.449L214.433 54.6831H217.313C217.811 54.6831 218.226 54.5946 218.558 54.4175C218.89 54.2404 219.139 53.9997 219.305 53.6953C219.477 53.3854 219.562 53.0368 219.562 52.6494C219.562 52.2288 219.479 51.8636 219.313 51.5537C219.153 51.2383 218.904 50.9976 218.566 50.8315C218.229 50.66 217.8 50.5742 217.28 50.5742H215.088V61H213.005V48.9141ZM219.903 61L217.064 55.5713L219.247 55.563L222.127 60.8921V61H219.903Z" fill="white"/>
<path d="M227.689 58.792L230.868 48.9141H233.167L228.834 61H227.282L227.689 58.792ZM224.75 48.9141L227.905 58.792L228.336 61H226.776L222.459 48.9141H224.75Z" fill="white"/>
<path d="M242.431 59.3481V61H236.015V59.3481H242.431ZM236.604 48.9141V61H234.521V48.9141H236.604ZM241.593 53.9609V55.5879H236.015V53.9609H241.593ZM242.39 48.9141V50.5742H236.015V48.9141H242.39Z" fill="white"/>
<path d="M247.644 61H245.062L245.079 59.3481H247.644C248.391 59.3481 249.016 59.1849 249.52 58.8584C250.029 58.5319 250.411 58.0643 250.666 57.4556C250.926 56.8468 251.056 56.1219 251.056 55.2808V54.625C251.056 53.972 250.981 53.3937 250.832 52.8901C250.688 52.3866 250.472 51.9632 250.184 51.6201C249.902 51.277 249.553 51.0169 249.138 50.8398C248.729 50.6628 248.256 50.5742 247.719 50.5742H245.013V48.9141H247.719C248.521 48.9141 249.254 49.0496 249.918 49.3208C250.583 49.5864 251.155 49.971 251.637 50.4746C252.124 50.9782 252.497 51.5814 252.757 52.2842C253.017 52.987 253.147 53.7728 253.147 54.6416V55.2808C253.147 56.1496 253.017 56.9354 252.757 57.6382C252.497 58.341 252.124 58.9442 251.637 59.4478C251.15 59.9458 250.569 60.3304 249.894 60.6016C249.224 60.8672 248.474 61 247.644 61ZM246.216 48.9141V61H244.133V48.9141H246.216Z" fill="white"/>
</svg>
