<svg width="332" height="59" viewBox="0 0 332 59" fill="none" xmlns="http://www.w3.org/2000/svg">
<path d="M0.983398 0.585938H13.4448C15.9998 0.585938 18.1953 0.968424 20.0312 1.7334C21.8825 2.49837 23.3053 3.63053 24.2998 5.12988C25.2943 6.62923 25.7915 8.47282 25.7915 10.6606C25.7915 12.4507 25.4855 13.9883 24.8735 15.2734C24.2769 16.5433 23.4277 17.6066 22.3262 18.4634C21.2399 19.3049 19.9624 19.978 18.4937 20.4829L16.3135 21.6304H5.48145L5.43555 16.2603H13.4907C14.6994 16.2603 15.7015 16.0461 16.4971 15.6177C17.2926 15.1893 17.8893 14.5926 18.2871 13.8276C18.7002 13.0627 18.9067 12.1753 18.9067 11.1655C18.9067 10.0946 18.7078 9.16895 18.3101 8.38867C17.9123 7.6084 17.3079 7.01172 16.4971 6.59863C15.6862 6.18555 14.6688 5.979 13.4448 5.979H7.86816V34H0.983398V0.585938ZM19.6641 34L12.0449 19.106L19.3198 19.0601L27.0308 33.6787V34H19.6641Z" fill="black"/>
<path d="M41.3511 34H34.0762L34.1221 28.6299H41.3511C43.1564 28.6299 44.6787 28.2244 45.918 27.4136C47.1572 26.5874 48.0905 25.3864 48.7178 23.8105C49.3604 22.2347 49.6816 20.3299 49.6816 18.0962V16.4668C49.6816 14.7533 49.498 13.2463 49.1309 11.9458C48.779 10.6453 48.2511 9.55143 47.5474 8.66406C46.8436 7.77669 45.9792 7.11117 44.9541 6.66748C43.929 6.2085 42.751 5.979 41.4199 5.979H33.9385V0.585938H41.4199C43.6536 0.585938 45.6961 0.968424 47.5474 1.7334C49.4139 2.48307 51.028 3.56169 52.3896 4.96924C53.7513 6.37679 54.7993 8.05973 55.5337 10.0181C56.2834 11.9611 56.6582 14.126 56.6582 16.5127V18.0962C56.6582 20.4676 56.2834 22.6325 55.5337 24.5908C54.7993 26.5492 53.7513 28.2321 52.3896 29.6396C51.0433 31.0319 49.4292 32.1105 47.5474 32.8755C45.6808 33.6252 43.6154 34 41.3511 34ZM37.9775 0.585938V34H31.0928V0.585938H37.9775Z" fill="black"/>
<path d="M64.8052 0.585938H70.6343L79.2173 25.1187L87.8003 0.585938H93.6294L81.5581 34H76.8765L64.8052 0.585938ZM61.6611 0.585938H67.4673L68.5229 24.499V34H61.6611V0.585938ZM90.9673 0.585938H96.7964V34H89.9116V24.499L90.9673 0.585938Z" fill="black"/>
<path d="M117.083 0.585938V34H110.222V0.585938H117.083ZM127.365 0.585938V5.979H100.101V0.585938H127.365Z" fill="black"/>
<path d="M159.149 25.2563C159.149 24.6597 159.058 24.1242 158.874 23.6499C158.706 23.1603 158.384 22.7166 157.91 22.3188C157.436 21.9058 156.77 21.5003 155.914 21.1025C155.057 20.7048 153.948 20.2917 152.586 19.8633C151.071 19.3737 149.633 18.8229 148.271 18.2109C146.925 17.599 145.732 16.8875 144.691 16.0767C143.666 15.2505 142.855 14.2943 142.259 13.208C141.677 12.1217 141.387 10.8595 141.387 9.42139C141.387 8.02913 141.693 6.76693 142.305 5.63477C142.917 4.4873 143.773 3.50814 144.875 2.69727C145.977 1.87109 147.277 1.23617 148.776 0.79248C150.291 0.348796 151.951 0.126953 153.756 0.126953C156.22 0.126953 158.369 0.570638 160.205 1.45801C162.041 2.34538 163.464 3.56169 164.474 5.10693C165.499 6.65218 166.011 8.41927 166.011 10.4082H159.172C159.172 9.42904 158.966 8.57227 158.553 7.83789C158.155 7.08822 157.543 6.49919 156.717 6.0708C155.906 5.64242 154.881 5.42822 153.642 5.42822C152.448 5.42822 151.454 5.61182 150.658 5.979C149.863 6.33089 149.266 6.81283 148.868 7.4248C148.47 8.02148 148.271 8.69466 148.271 9.44434C148.271 10.0104 148.409 10.5229 148.685 10.9819C148.975 11.4409 149.404 11.8693 149.97 12.2671C150.536 12.6649 151.232 13.0397 152.058 13.3916C152.884 13.7435 153.84 14.0877 154.927 14.4243C156.747 14.9751 158.346 15.5947 159.723 16.2832C161.115 16.9717 162.278 17.7443 163.211 18.6011C164.145 19.4578 164.848 20.4294 165.323 21.5156C165.797 22.6019 166.034 23.8335 166.034 25.2104C166.034 26.6639 165.751 27.9644 165.185 29.1118C164.619 30.2593 163.8 31.2308 162.729 32.0264C161.659 32.8219 160.381 33.4263 158.897 33.8394C157.413 34.2524 155.753 34.459 153.917 34.459C152.265 34.459 150.635 34.2448 149.029 33.8164C147.422 33.3727 145.961 32.7072 144.646 31.8198C143.345 30.9325 142.305 29.8003 141.524 28.4233C140.744 27.0464 140.354 25.417 140.354 23.5352H147.262C147.262 24.5755 147.422 25.4552 147.744 26.1743C148.065 26.8934 148.516 27.4748 149.098 27.9185C149.694 28.3621 150.398 28.6834 151.209 28.8823C152.035 29.0812 152.938 29.1807 153.917 29.1807C155.11 29.1807 156.09 29.0124 156.854 28.6758C157.635 28.3392 158.208 27.8726 158.576 27.2759C158.958 26.6792 159.149 26.006 159.149 25.2563Z" fill="black"/>
<path d="M185.656 0.585938V34H178.794V0.585938H185.656ZM195.937 0.585938V5.979H168.673V0.585938H195.937Z" fill="black"/>
<path d="M218.312 0.585938H225.174V22.6631C225.174 25.2334 224.624 27.3983 223.522 29.1577C222.436 30.9172 220.929 32.2406 219.001 33.1279C217.089 34.0153 214.885 34.459 212.392 34.459C209.898 34.459 207.679 34.0153 205.736 33.1279C203.809 32.2406 202.294 30.9172 201.192 29.1577C200.106 27.3983 199.563 25.2334 199.563 22.6631V0.585938H206.448V22.6631C206.448 24.1624 206.685 25.3864 207.159 26.335C207.633 27.2835 208.314 27.9797 209.202 28.4233C210.104 28.867 211.168 29.0889 212.392 29.0889C213.646 29.0889 214.709 28.867 215.582 28.4233C216.469 27.9797 217.142 27.2835 217.601 26.335C218.075 25.3864 218.312 24.1624 218.312 22.6631V0.585938Z" fill="black"/>
<path d="M241.101 34H233.826L233.872 28.6299H241.101C242.906 28.6299 244.429 28.2244 245.668 27.4136C246.907 26.5874 247.84 25.3864 248.468 23.8105C249.11 22.2347 249.432 20.3299 249.432 18.0962V16.4668C249.432 14.7533 249.248 13.2463 248.881 11.9458C248.529 10.6453 248.001 9.55143 247.297 8.66406C246.594 7.77669 245.729 7.11117 244.704 6.66748C243.679 6.2085 242.501 5.979 241.17 5.979H233.688V0.585938H241.17C243.404 0.585938 245.446 0.968424 247.297 1.7334C249.164 2.48307 250.778 3.56169 252.14 4.96924C253.501 6.37679 254.549 8.05973 255.284 10.0181C256.033 11.9611 256.408 14.126 256.408 16.5127V18.0962C256.408 20.4676 256.033 22.6325 255.284 24.5908C254.549 26.5492 253.501 28.2321 252.14 29.6396C250.793 31.0319 249.179 32.1105 247.297 32.8755C245.431 33.6252 243.365 34 241.101 34ZM237.728 0.585938V34H230.843V0.585938H237.728Z" fill="black"/>
<path d="M268.732 0.585938V34H261.87V0.585938H268.732Z" fill="black"/>
<path d="M302.628 16.5127V18.0962C302.628 20.6359 302.284 22.9155 301.595 24.9351C300.907 26.9546 299.935 28.6758 298.681 30.0986C297.426 31.5062 295.927 32.5848 294.183 33.3345C292.454 34.0841 290.534 34.459 288.422 34.459C286.326 34.459 284.406 34.0841 282.662 33.3345C280.933 32.5848 279.434 31.5062 278.164 30.0986C276.894 28.6758 275.907 26.9546 275.204 24.9351C274.515 22.9155 274.171 20.6359 274.171 18.0962V16.5127C274.171 13.9577 274.515 11.6781 275.204 9.67383C275.892 7.6543 276.864 5.93311 278.118 4.51025C279.388 3.0874 280.887 2.00114 282.616 1.25146C284.36 0.50179 286.28 0.126953 288.376 0.126953C290.488 0.126953 292.408 0.50179 294.137 1.25146C295.881 2.00114 297.38 3.0874 298.635 4.51025C299.905 5.93311 300.884 7.6543 301.572 9.67383C302.276 11.6781 302.628 13.9577 302.628 16.5127ZM295.674 18.0962V16.4668C295.674 14.6921 295.514 13.1315 295.192 11.7852C294.871 10.4388 294.397 9.30664 293.77 8.38867C293.142 7.4707 292.377 6.78223 291.475 6.32324C290.572 5.84896 289.539 5.61182 288.376 5.61182C287.214 5.61182 286.181 5.84896 285.278 6.32324C284.391 6.78223 283.634 7.4707 283.006 8.38867C282.394 9.30664 281.928 10.4388 281.606 11.7852C281.285 13.1315 281.125 14.6921 281.125 16.4668V18.0962C281.125 19.8556 281.285 21.4162 281.606 22.7778C281.928 24.1242 282.402 25.264 283.029 26.1973C283.657 27.1152 284.422 27.8114 285.324 28.2856C286.227 28.7599 287.26 28.9971 288.422 28.9971C289.585 28.9971 290.618 28.7599 291.521 28.2856C292.423 27.8114 293.181 27.1152 293.792 26.1973C294.404 25.264 294.871 24.1242 295.192 22.7778C295.514 21.4162 295.674 19.8556 295.674 18.0962Z" fill="black"/>
<path d="M324.98 25.2563C324.98 24.6597 324.889 24.1242 324.705 23.6499C324.537 23.1603 324.215 22.7166 323.741 22.3188C323.267 21.9058 322.601 21.5003 321.745 21.1025C320.888 20.7048 319.779 20.2917 318.417 19.8633C316.902 19.3737 315.464 18.8229 314.103 18.2109C312.756 17.599 311.563 16.8875 310.522 16.0767C309.497 15.2505 308.687 14.2943 308.09 13.208C307.508 12.1217 307.218 10.8595 307.218 9.42139C307.218 8.02913 307.524 6.76693 308.136 5.63477C308.748 4.4873 309.604 3.50814 310.706 2.69727C311.808 1.87109 313.108 1.23617 314.607 0.79248C316.122 0.348796 317.782 0.126953 319.587 0.126953C322.051 0.126953 324.2 0.570638 326.036 1.45801C327.872 2.34538 329.295 3.56169 330.305 5.10693C331.33 6.65218 331.842 8.41927 331.842 10.4082H325.003C325.003 9.42904 324.797 8.57227 324.384 7.83789C323.986 7.08822 323.374 6.49919 322.548 6.0708C321.737 5.64242 320.712 5.42822 319.473 5.42822C318.279 5.42822 317.285 5.61182 316.489 5.979C315.694 6.33089 315.097 6.81283 314.699 7.4248C314.301 8.02148 314.103 8.69466 314.103 9.44434C314.103 10.0104 314.24 10.5229 314.516 10.9819C314.806 11.4409 315.235 11.8693 315.801 12.2671C316.367 12.6649 317.063 13.0397 317.889 13.3916C318.715 13.7435 319.672 14.0877 320.758 14.4243C322.578 14.9751 324.177 15.5947 325.554 16.2832C326.946 16.9717 328.109 17.7443 329.042 18.6011C329.976 19.4578 330.68 20.4294 331.154 21.5156C331.628 22.6019 331.865 23.8335 331.865 25.2104C331.865 26.6639 331.582 27.9644 331.016 29.1118C330.45 30.2593 329.632 31.2308 328.561 32.0264C327.49 32.8219 326.212 33.4263 324.728 33.8394C323.244 34.2524 321.584 34.459 319.748 34.459C318.096 34.459 316.466 34.2448 314.86 33.8164C313.253 33.3727 311.792 32.7072 310.477 31.8198C309.176 30.9325 308.136 29.8003 307.355 28.4233C306.575 27.0464 306.185 25.417 306.185 23.5352H313.093C313.093 24.5755 313.253 25.4552 313.575 26.1743C313.896 26.8934 314.347 27.4748 314.929 27.9185C315.525 28.3621 316.229 28.6834 317.04 28.8823C317.866 29.0812 318.769 29.1807 319.748 29.1807C320.941 29.1807 321.921 29.0124 322.686 28.6758C323.466 28.3392 324.04 27.8726 324.407 27.2759C324.789 26.6792 324.98 26.006 324.98 25.2563Z" fill="black"/>
<path d="M86.5859 48.1406L83.1875 58H81.1328L85.4141 46.625H86.7266L86.5859 48.1406ZM89.4297 58L86.0234 48.1406L85.875 46.625H87.1953L91.4922 58H89.4297ZM89.2656 53.7812V55.3359H83.0781V53.7812H89.2656Z" fill="black"/>
<path d="M99.8906 56.4453V58H94.1797V56.4453H99.8906ZM94.7266 46.625V58H92.7656V46.625H94.7266Z" fill="black"/>
<path d="M108.531 56.4453V58H102.82V56.4453H108.531ZM103.367 46.625V58H101.406V46.625H103.367Z" fill="black"/>
<path d="M114.031 46.625H118.055C118.919 46.625 119.656 46.7552 120.266 47.0156C120.875 47.276 121.341 47.6615 121.664 48.1719C121.992 48.6771 122.156 49.3021 122.156 50.0469C122.156 50.6146 122.052 51.1146 121.844 51.5469C121.635 51.9792 121.341 52.3438 120.961 52.6406C120.581 52.9323 120.128 53.1589 119.602 53.3203L119.008 53.6094H115.391L115.375 52.0547H118.086C118.555 52.0547 118.945 51.9714 119.258 51.8047C119.57 51.638 119.805 51.4115 119.961 51.125C120.122 50.8333 120.203 50.5052 120.203 50.1406C120.203 49.7448 120.125 49.401 119.969 49.1094C119.818 48.8125 119.583 48.5859 119.266 48.4297C118.948 48.2682 118.544 48.1875 118.055 48.1875H115.992V58H114.031V46.625ZM120.523 58L117.852 52.8906L119.906 52.8828L122.617 57.8984V58H120.523Z" fill="black"/>
<path d="M126.203 46.625V58H124.242V46.625H126.203Z" fill="black"/>
<path d="M137.375 52.1875V56.5312C137.214 56.7448 136.961 56.9792 136.617 57.2344C136.279 57.4844 135.828 57.7005 135.266 57.8828C134.703 58.0651 134.003 58.1562 133.164 58.1562C132.451 58.1562 131.797 58.0365 131.203 57.7969C130.609 57.5521 130.096 57.1953 129.664 56.7266C129.237 56.2578 128.906 55.6875 128.672 55.0156C128.438 54.3385 128.32 53.5677 128.32 52.7031V51.9141C128.32 51.0547 128.427 50.2891 128.641 49.6172C128.859 48.9401 129.172 48.3672 129.578 47.8984C129.984 47.4297 130.474 47.0755 131.047 46.8359C131.625 46.5911 132.279 46.4688 133.008 46.4688C133.94 46.4688 134.711 46.625 135.32 46.9375C135.935 47.2448 136.409 47.6719 136.742 48.2188C137.076 48.7656 137.286 49.3906 137.375 50.0938H135.453C135.391 49.6979 135.268 49.3438 135.086 49.0312C134.909 48.7188 134.654 48.474 134.32 48.2969C133.992 48.1146 133.565 48.0234 133.039 48.0234C132.586 48.0234 132.188 48.1094 131.844 48.2812C131.5 48.4531 131.214 48.7057 130.984 49.0391C130.76 49.3724 130.591 49.7786 130.477 50.2578C130.362 50.737 130.305 51.2839 130.305 51.8984V52.7031C130.305 53.3281 130.37 53.8828 130.5 54.3672C130.635 54.8516 130.828 55.2604 131.078 55.5938C131.333 55.9271 131.643 56.1797 132.008 56.3516C132.372 56.5182 132.784 56.6016 133.242 56.6016C133.69 56.6016 134.057 56.5651 134.344 56.4922C134.63 56.4141 134.857 56.3229 135.023 56.2188C135.195 56.1094 135.328 56.0052 135.422 55.9062V53.6484H133.055V52.1875H137.375Z" fill="black"/>
<path d="M147.062 51.375V52.9297H141.023V51.375H147.062ZM141.508 46.625V58H139.547V46.625H141.508ZM148.57 46.625V58H146.617V46.625H148.57Z" fill="black"/>
<path d="M155.352 46.625V58H153.406V46.625H155.352ZM158.922 46.625V48.1875H149.867V46.625H158.922Z" fill="black"/>
<path d="M166.281 55.0703C166.281 54.8359 166.245 54.6276 166.172 54.4453C166.104 54.263 165.982 54.0964 165.805 53.9453C165.628 53.7943 165.378 53.6484 165.055 53.5078C164.737 53.362 164.331 53.2135 163.836 53.0625C163.294 52.8958 162.794 52.7109 162.336 52.5078C161.883 52.2995 161.487 52.0599 161.148 51.7891C160.81 51.513 160.547 51.1979 160.359 50.8438C160.172 50.4844 160.078 50.0703 160.078 49.6016C160.078 49.138 160.174 48.7161 160.367 48.3359C160.565 47.9557 160.844 47.6276 161.203 47.3516C161.568 47.0703 161.997 46.8542 162.492 46.7031C162.987 46.5469 163.534 46.4688 164.133 46.4688C164.977 46.4688 165.703 46.625 166.312 46.9375C166.927 47.25 167.398 47.6693 167.727 48.1953C168.06 48.7214 168.227 49.3021 168.227 49.9375H166.281C166.281 49.5625 166.201 49.2318 166.039 48.9453C165.883 48.6536 165.643 48.4245 165.32 48.2578C165.003 48.0911 164.599 48.0078 164.109 48.0078C163.646 48.0078 163.26 48.0781 162.953 48.2188C162.646 48.3594 162.417 48.5495 162.266 48.7891C162.115 49.0286 162.039 49.2995 162.039 49.6016C162.039 49.8151 162.089 50.0104 162.188 50.1875C162.286 50.3594 162.438 50.5208 162.641 50.6719C162.844 50.8177 163.099 50.9557 163.406 51.0859C163.714 51.2161 164.076 51.3411 164.492 51.4609C165.122 51.6484 165.672 51.8568 166.141 52.0859C166.609 52.3099 167 52.5651 167.312 52.8516C167.625 53.138 167.859 53.4635 168.016 53.8281C168.172 54.1875 168.25 54.5964 168.25 55.0547C168.25 55.5339 168.154 55.9661 167.961 56.3516C167.768 56.7318 167.492 57.0573 167.133 57.3281C166.779 57.5938 166.352 57.7995 165.852 57.9453C165.357 58.0859 164.805 58.1562 164.195 58.1562C163.648 58.1562 163.109 58.0833 162.578 57.9375C162.052 57.7917 161.573 57.5703 161.141 57.2734C160.708 56.9714 160.365 56.5964 160.109 56.1484C159.854 55.6953 159.727 55.1667 159.727 54.5625H161.688C161.688 54.9323 161.75 55.2474 161.875 55.5078C162.005 55.7682 162.185 55.9818 162.414 56.1484C162.643 56.3099 162.909 56.4297 163.211 56.5078C163.518 56.5859 163.846 56.625 164.195 56.625C164.654 56.625 165.036 56.5599 165.344 56.4297C165.656 56.2995 165.891 56.1172 166.047 55.8828C166.203 55.6484 166.281 55.3776 166.281 55.0703Z" fill="black"/>
<path d="M173.969 46.625H177.992C178.857 46.625 179.594 46.7552 180.203 47.0156C180.812 47.276 181.279 47.6615 181.602 48.1719C181.93 48.6771 182.094 49.3021 182.094 50.0469C182.094 50.6146 181.99 51.1146 181.781 51.5469C181.573 51.9792 181.279 52.3438 180.898 52.6406C180.518 52.9323 180.065 53.1589 179.539 53.3203L178.945 53.6094H175.328L175.312 52.0547H178.023C178.492 52.0547 178.883 51.9714 179.195 51.8047C179.508 51.638 179.742 51.4115 179.898 51.125C180.06 50.8333 180.141 50.5052 180.141 50.1406C180.141 49.7448 180.062 49.401 179.906 49.1094C179.755 48.8125 179.521 48.5859 179.203 48.4297C178.885 48.2682 178.482 48.1875 177.992 48.1875H175.93V58H173.969V46.625ZM180.461 58L177.789 52.8906L179.844 52.8828L182.555 57.8984V58H180.461Z" fill="black"/>
<path d="M191.492 56.4453V58H185.453V56.4453H191.492ZM186.008 46.625V58H184.047V46.625H186.008ZM190.703 51.375V52.9062H185.453V51.375H190.703ZM191.453 46.625V48.1875H185.453V46.625H191.453Z" fill="black"/>
<path d="M199.078 55.0703C199.078 54.8359 199.042 54.6276 198.969 54.4453C198.901 54.263 198.779 54.0964 198.602 53.9453C198.424 53.7943 198.174 53.6484 197.852 53.5078C197.534 53.362 197.128 53.2135 196.633 53.0625C196.091 52.8958 195.591 52.7109 195.133 52.5078C194.68 52.2995 194.284 52.0599 193.945 51.7891C193.607 51.513 193.344 51.1979 193.156 50.8438C192.969 50.4844 192.875 50.0703 192.875 49.6016C192.875 49.138 192.971 48.7161 193.164 48.3359C193.362 47.9557 193.641 47.6276 194 47.3516C194.365 47.0703 194.794 46.8542 195.289 46.7031C195.784 46.5469 196.331 46.4688 196.93 46.4688C197.773 46.4688 198.5 46.625 199.109 46.9375C199.724 47.25 200.195 47.6693 200.523 48.1953C200.857 48.7214 201.023 49.3021 201.023 49.9375H199.078C199.078 49.5625 198.997 49.2318 198.836 48.9453C198.68 48.6536 198.44 48.4245 198.117 48.2578C197.799 48.0911 197.396 48.0078 196.906 48.0078C196.443 48.0078 196.057 48.0781 195.75 48.2188C195.443 48.3594 195.214 48.5495 195.062 48.7891C194.911 49.0286 194.836 49.2995 194.836 49.6016C194.836 49.8151 194.885 50.0104 194.984 50.1875C195.083 50.3594 195.234 50.5208 195.438 50.6719C195.641 50.8177 195.896 50.9557 196.203 51.0859C196.51 51.2161 196.872 51.3411 197.289 51.4609C197.919 51.6484 198.469 51.8568 198.938 52.0859C199.406 52.3099 199.797 52.5651 200.109 52.8516C200.422 53.138 200.656 53.4635 200.812 53.8281C200.969 54.1875 201.047 54.5964 201.047 55.0547C201.047 55.5339 200.951 55.9661 200.758 56.3516C200.565 56.7318 200.289 57.0573 199.93 57.3281C199.576 57.5938 199.148 57.7995 198.648 57.9453C198.154 58.0859 197.602 58.1562 196.992 58.1562C196.445 58.1562 195.906 58.0833 195.375 57.9375C194.849 57.7917 194.37 57.5703 193.938 57.2734C193.505 56.9714 193.161 56.5964 192.906 56.1484C192.651 55.6953 192.523 55.1667 192.523 54.5625H194.484C194.484 54.9323 194.547 55.2474 194.672 55.5078C194.802 55.7682 194.982 55.9818 195.211 56.1484C195.44 56.3099 195.706 56.4297 196.008 56.5078C196.315 56.5859 196.643 56.625 196.992 56.625C197.451 56.625 197.833 56.5599 198.141 56.4297C198.453 56.2995 198.688 56.1172 198.844 55.8828C199 55.6484 199.078 55.3776 199.078 55.0703Z" fill="black"/>
<path d="M210.227 56.4453V58H204.188V56.4453H210.227ZM204.742 46.625V58H202.781V46.625H204.742ZM209.438 51.375V52.9062H204.188V51.375H209.438ZM210.188 46.625V48.1875H204.188V46.625H210.188Z" fill="black"/>
<path d="M211.828 46.625H215.852C216.716 46.625 217.453 46.7552 218.062 47.0156C218.672 47.276 219.138 47.6615 219.461 48.1719C219.789 48.6771 219.953 49.3021 219.953 50.0469C219.953 50.6146 219.849 51.1146 219.641 51.5469C219.432 51.9792 219.138 52.3438 218.758 52.6406C218.378 52.9323 217.924 53.1589 217.398 53.3203L216.805 53.6094H213.188L213.172 52.0547H215.883C216.352 52.0547 216.742 51.9714 217.055 51.8047C217.367 51.638 217.602 51.4115 217.758 51.125C217.919 50.8333 218 50.5052 218 50.1406C218 49.7448 217.922 49.401 217.766 49.1094C217.615 48.8125 217.38 48.5859 217.062 48.4297C216.745 48.2682 216.341 48.1875 215.852 48.1875H213.789V58H211.828V46.625ZM218.32 58L215.648 52.8906L217.703 52.8828L220.414 57.8984V58H218.32Z" fill="black"/>
<path d="M225.648 55.9219L228.641 46.625H230.805L226.727 58H225.266L225.648 55.9219ZM222.883 46.625L225.852 55.9219L226.258 58H224.789L220.727 46.625H222.883Z" fill="black"/>
<path d="M239.523 56.4453V58H233.484V56.4453H239.523ZM234.039 46.625V58H232.078V46.625H234.039ZM238.734 51.375V52.9062H233.484V51.375H238.734ZM239.484 46.625V48.1875H233.484V46.625H239.484Z" fill="black"/>
<path d="M244.43 58H242L242.016 56.4453H244.43C245.133 56.4453 245.721 56.2917 246.195 55.9844C246.674 55.6771 247.034 55.237 247.273 54.6641C247.518 54.0911 247.641 53.4089 247.641 52.6172V52C247.641 51.3854 247.57 50.8411 247.43 50.3672C247.294 49.8932 247.091 49.4948 246.82 49.1719C246.555 48.849 246.227 48.6042 245.836 48.4375C245.451 48.2708 245.005 48.1875 244.5 48.1875H241.953V46.625H244.5C245.255 46.625 245.945 46.7526 246.57 47.0078C247.195 47.2578 247.734 47.6198 248.188 48.0938C248.646 48.5677 248.997 49.1354 249.242 49.7969C249.487 50.4583 249.609 51.1979 249.609 52.0156V52.6172C249.609 53.4349 249.487 54.1745 249.242 54.8359C248.997 55.4974 248.646 56.0651 248.188 56.5391C247.729 57.0078 247.182 57.3698 246.547 57.625C245.917 57.875 245.211 58 244.43 58ZM243.086 46.625V58H241.125V46.625H243.086Z" fill="black"/>
</svg>
