<svg width="76" height="45" viewBox="0 0 76 45" fill="none" xmlns="http://www.w3.org/2000/svg">
<path d="M1.94974 6.60384e-07H0.0504515V36.2278H1.94974V6.60384e-07Z" fill="white"/>
<path d="M3.84921 0H2.89947V36.2278H3.84921V0Z" fill="white"/>
<path d="M6.69823 0H5.7485V36.2278H6.69823V0Z" fill="white"/>
<path d="M12.3961 0H10.4968V36.2278H12.3961V0Z" fill="white"/>
<path d="M16.1949 0H15.2451V36.2278H16.1949V0Z" fill="white"/>
<path d="M19.9936 0H17.1446V36.2278H19.9936V0Z" fill="white"/>
<path d="M21.8929 0H20.9432V36.2278H21.8929V0Z" fill="white"/>
<path d="M24.7418 0H22.8425V36.2278H24.7418V0Z" fill="white"/>
<path d="M28.5407 0H27.591V36.2278H28.5407V0Z" fill="white"/>
<path d="M32.3393 0H31.3895V36.2278H32.3393V0Z" fill="white"/>
<path d="M36.138 0H33.289V36.2278H36.138V0Z" fill="white"/>
<path d="M38.9869 0H37.0876V36.2278H38.9869V0Z" fill="white"/>
<path d="M43.7352 0H41.8359V36.2278H43.7352V0Z" fill="white"/>
<path d="M47.534 0H44.6849V36.2278H47.534V0Z" fill="white"/>
<path d="M51.3327 0H50.383V36.2278H51.3327V0Z" fill="white"/>
<path d="M55.1315 0H52.2824V36.2278H55.1315V0Z" fill="white"/>
<path d="M57.0308 0H56.081V36.2278H57.0308V0Z" fill="white"/>
<path d="M59.8796 0H57.9803V36.2278H59.8796V0Z" fill="white"/>
<path d="M64.6281 0H62.7288V36.2278H64.6281V0Z" fill="white"/>
<path d="M70.3261 0H67.4771V36.2278H70.3261V0Z" fill="white"/>
<path d="M72.2254 0H71.2757V36.2278H72.2254V0Z" fill="white"/>
<path d="M75.0745 0H73.1752V36.2278H75.0745V0Z" fill="white"/>
<path d="M0 37.2108H2.34683C2.87917 37.2108 3.32873 37.292 3.69552 37.4543C4.06556 37.6166 4.34634 37.8568 4.53785 38.1749C4.73261 38.4897 4.82999 38.8776 4.82999 39.3385C4.82999 39.6631 4.76344 39.9601 4.63036 40.2296C4.50052 40.4957 4.31226 40.723 4.06556 40.9112C3.82212 41.0962 3.52998 41.2342 3.18915 41.3251L2.92623 41.4273H0.720603L0.710865 40.6629H2.37604C2.71362 40.6629 2.9944 40.6045 3.21837 40.4876C3.44234 40.3675 3.61113 40.2068 3.72474 40.0056C3.83835 39.8043 3.89515 39.582 3.89515 39.3385C3.89515 39.0659 3.84159 38.8273 3.73448 38.6228C3.62736 38.4183 3.45857 38.2609 3.22811 38.1505C3.00089 38.0369 2.70713 37.9801 2.34683 37.9801H0.939705V44.3H0V37.2108ZM4.14347 44.3L2.41986 41.0865L3.39852 41.0816L5.14647 44.2416V44.3H4.14347Z" fill="white"/>
<path d="M8.06296 44.3H6.5828L6.59254 43.5356H8.06296C8.56933 43.5356 8.99131 43.4301 9.32889 43.2191C9.66647 43.0049 9.91965 42.7062 10.0884 42.3232C10.2605 41.9369 10.3465 41.4858 10.3465 40.9696V40.5363C10.3465 40.1306 10.2978 39.7703 10.2004 39.4554C10.103 39.1373 9.96022 38.8695 9.77196 38.652C9.58369 38.4313 9.35323 38.2641 9.08057 38.1505C8.81115 38.0369 8.50117 37.9801 8.1506 37.9801H6.55359V37.2108H8.1506C8.61477 37.2108 9.03837 37.2887 9.4214 37.4445C9.80442 37.5971 10.1339 37.8194 10.4098 38.1116C10.6889 38.4005 10.9032 38.751 11.0525 39.1633C11.2018 39.5723 11.2765 40.0332 11.2765 40.546V40.9696C11.2765 41.4825 11.2018 41.9451 11.0525 42.3573C10.9032 42.7663 10.6873 43.1152 10.4049 43.4041C10.1258 43.693 9.78819 43.9154 9.39218 44.0712C8.99942 44.2237 8.55635 44.3 8.06296 44.3ZM7.0843 37.2108V44.3H6.1446V37.2108H7.0843Z" fill="white"/>
<path d="M12.9855 37.2108H13.8959L16.2184 42.9903L18.536 37.2108H19.4514L16.569 44.3H15.8581L12.9855 37.2108ZM12.6885 37.2108H13.4918L13.6233 41.5344V44.3H12.6885V37.2108ZM18.9402 37.2108H19.7435V44.3H18.8087V41.5344L18.9402 37.2108Z" fill="white"/>
<path d="M23.8675 37.2108V44.3H22.9424V37.2108H23.8675ZM26.1462 37.2108V37.9801H20.6686V37.2108H26.1462Z" fill="white"/>
</svg>
