<svg width="219" height="10" viewBox="0 0 219 10" fill="none" xmlns="http://www.w3.org/2000/svg">
<path d="M5.79612 6.32702H6.99532C6.93286 6.90164 6.76839 7.41588 6.5019 7.86974C6.23541 8.3236 5.85858 8.68378 5.37141 8.95027C4.88423 9.21259 4.27631 9.34375 3.54763 9.34375C3.01465 9.34375 2.52956 9.24382 2.09235 9.04395C1.65931 8.84409 1.28664 8.56094 0.974348 8.19452C0.662057 7.82394 0.420552 7.38048 0.249833 6.86416C0.0832776 6.34368 0 5.7649 0 5.12782V4.22218C0 3.5851 0.0832776 3.00841 0.249833 2.49208C0.420552 1.9716 0.664139 1.52606 0.980594 1.15548C1.30121 0.784892 1.68637 0.499666 2.13607 0.2998C2.58577 0.0999332 3.09168 0 3.65381 0C4.34085 0 4.92171 0.12908 5.39639 0.387241C5.87107 0.645402 6.23958 1.0035 6.5019 1.46152C6.76839 1.91539 6.93286 2.44212 6.99532 3.04172H5.79612C5.73783 2.617 5.62957 2.25266 5.47134 1.9487C5.31311 1.64057 5.08826 1.40323 4.79679 1.23667C4.50532 1.07012 4.12433 0.98684 3.65381 0.98684C3.24991 0.98684 2.8939 1.06387 2.58577 1.21794C2.28181 1.372 2.02573 1.5906 1.81753 1.87375C1.6135 2.15689 1.45944 2.49625 1.35534 2.89182C1.25125 3.28739 1.1992 3.72668 1.1992 4.20969V5.12782C1.1992 5.57336 1.245 5.99183 1.33661 6.38323C1.43238 6.77464 1.57603 7.11816 1.76757 7.41379C1.95911 7.70943 2.20269 7.94261 2.49833 8.11333C2.79397 8.27988 3.14373 8.36316 3.54763 8.36316C4.05979 8.36316 4.46785 8.28196 4.77181 8.11957C5.07577 7.95718 5.30479 7.724 5.45885 7.42004C5.61708 7.11608 5.7295 6.75174 5.79612 6.32702Z" fill="white"/>
<path d="M15.6395 4.38457V4.95919C15.6395 5.64206 15.5542 6.25415 15.3835 6.79546C15.2127 7.33676 14.9671 7.79687 14.6465 8.17579C14.3258 8.5547 13.9407 8.84409 13.491 9.04395C13.0454 9.24382 12.5458 9.34375 11.992 9.34375C11.4548 9.34375 10.9614 9.24382 10.5117 9.04395C10.0662 8.84409 9.67894 8.5547 9.35 8.17579C9.02521 7.79687 8.7733 7.33676 8.59425 6.79546C8.41521 6.25415 8.32568 5.64206 8.32568 4.95919V4.38457C8.32568 3.70169 8.41312 3.09168 8.58801 2.55454C8.76705 2.01324 9.01897 1.55313 9.34375 1.17422C9.66853 0.791138 10.0537 0.499666 10.4992 0.2998C10.9489 0.0999332 11.4423 0 11.9795 0C12.5333 0 13.033 0.0999332 13.4785 0.2998C13.9282 0.499666 14.3133 0.791138 14.634 1.17422C14.9587 1.55313 15.2065 2.01324 15.3772 2.55454C15.5521 3.09168 15.6395 3.70169 15.6395 4.38457ZM14.4466 4.95919V4.37208C14.4466 3.83077 14.3904 3.35193 14.278 2.93554C14.1697 2.51915 14.0094 2.16938 13.797 1.88624C13.5847 1.6031 13.3244 1.38866 13.0163 1.24292C12.7123 1.09718 12.3667 1.02432 11.9795 1.02432C11.6047 1.02432 11.2654 1.09718 10.9614 1.24292C10.6616 1.38866 10.4035 1.6031 10.1869 1.88624C9.97458 2.16938 9.81011 2.51915 9.69352 2.93554C9.57693 3.35193 9.51863 3.83077 9.51863 4.37208V4.95919C9.51863 5.50465 9.57693 5.98766 9.69352 6.40822C9.81011 6.82461 9.97666 7.17645 10.1932 7.46376C10.4139 7.74691 10.6741 7.96135 10.9739 8.10708C11.2779 8.25282 11.6172 8.32569 11.992 8.32569C12.3834 8.32569 12.7311 8.25282 13.035 8.10708C13.339 7.96135 13.5951 7.74691 13.8033 7.46376C14.0156 7.17645 14.1759 6.82461 14.2842 6.40822C14.3925 5.98766 14.4466 5.50465 14.4466 4.95919Z" fill="white"/>
<path d="M20.7986 5.65247H18.369V4.67188H20.7986C21.2691 4.67188 21.6501 4.59693 21.9416 4.44703C22.233 4.29713 22.4454 4.08893 22.5787 3.82245C22.7161 3.55596 22.7848 3.25199 22.7848 2.91055C22.7848 2.59826 22.7161 2.30471 22.5787 2.02989C22.4454 1.75508 22.233 1.53439 21.9416 1.36784C21.6501 1.19712 21.2691 1.11176 20.7986 1.11176H18.65V9.21884H17.4446V0.124917H20.7986C21.4856 0.124917 22.0665 0.243587 22.5412 0.480929C23.0159 0.71827 23.376 1.04722 23.6217 1.46777C23.8674 1.88416 23.9902 2.36092 23.9902 2.89806C23.9902 3.48101 23.8674 3.97859 23.6217 4.39082C23.376 4.80304 23.0159 5.11741 22.5412 5.33393C22.0665 5.54629 21.4856 5.65247 20.7986 5.65247Z" fill="white"/>
<path d="M25.9327 0.124917L28.2936 4.69061L30.6607 0.124917H32.0286L28.8932 5.82111V9.21884H27.6877V5.82111L24.5523 0.124917H25.9327Z" fill="white"/>
<path d="M33.1966 0.124917H36.207C36.8899 0.124917 37.4666 0.229014 37.9371 0.437208C38.4118 0.645402 38.772 0.953529 39.0177 1.36159C39.2675 1.76549 39.3924 2.26307 39.3924 2.85434C39.3924 3.27073 39.307 3.65173 39.1363 3.99733C38.9698 4.33877 38.7283 4.63024 38.4118 4.87174C38.0995 5.10909 37.7248 5.28605 37.2876 5.40264L36.9503 5.5338H34.1209L34.1084 4.55321H36.2445C36.6776 4.55321 37.0377 4.47826 37.325 4.32836C37.6123 4.17429 37.8289 3.96818 37.9746 3.71002C38.1203 3.45186 38.1932 3.16663 38.1932 2.85434C38.1932 2.50458 38.1245 2.19853 37.9871 1.93621C37.8497 1.67388 37.6332 1.47193 37.3375 1.33036C37.0461 1.18462 36.6692 1.11176 36.207 1.11176H34.402V9.21884H33.1966V0.124917ZM38.5117 9.21884L36.3007 5.09659L37.5561 5.09035L39.7984 9.14389V9.21884H38.5117Z" fill="white"/>
<path d="M42.3717 0.124917V9.21884H41.1662V0.124917H42.3717Z" fill="white"/>
<path d="M51.2845 4.69061V8.01964C51.172 8.18619 50.993 8.37357 50.7473 8.58176C50.5016 8.78579 50.1623 8.96484 49.7292 9.1189C49.3004 9.2688 48.7466 9.34375 48.0679 9.34375C47.5141 9.34375 47.004 9.24799 46.5376 9.05645C46.0754 8.86074 45.6736 8.5776 45.3322 8.20701C44.9949 7.83226 44.7326 7.3784 44.5452 6.84542C44.362 6.30828 44.2704 5.70036 44.2704 5.02164V4.31587C44.2704 3.63715 44.3495 3.03131 44.5077 2.49833C44.6701 1.96535 44.9075 1.51357 45.2198 1.14299C45.5321 0.768237 45.9151 0.485092 46.369 0.293554C46.8229 0.0978513 47.3433 0 47.9304 0C48.6258 0 49.2067 0.120753 49.673 0.362258C50.1436 0.599599 50.51 0.928546 50.7723 1.3491C51.0388 1.76965 51.2095 2.2485 51.2845 2.78564H50.079C50.0249 2.45669 49.9166 2.15689 49.7542 1.88624C49.596 1.61559 49.3691 1.39906 49.0734 1.23667C48.7778 1.07012 48.3968 0.98684 47.9304 0.98684C47.5099 0.98684 47.1456 1.06387 46.8374 1.21794C46.5293 1.372 46.2753 1.59269 46.0754 1.87999C45.8756 2.1673 45.7257 2.51499 45.6257 2.92305C45.53 3.33111 45.4821 3.79122 45.4821 4.30337V5.02164C45.4821 5.54629 45.5425 6.01473 45.6632 6.42695C45.7881 6.83918 45.9651 7.19103 46.1941 7.4825C46.4231 7.76981 46.6959 7.98841 47.0123 8.13831C47.3329 8.28821 47.6869 8.36316 48.0741 8.36316C48.503 8.36316 48.8507 8.32777 49.1172 8.25698C49.3836 8.18203 49.5918 8.09459 49.7417 7.99466C49.8916 7.89056 50.0061 7.79271 50.0853 7.7011V5.66496H47.9804V4.69061H51.2845Z" fill="white"/>
<path d="M59.2229 4.0348V5.0154H54.3012V4.0348H59.2229ZM54.4886 0.124917V9.21884H53.2831V0.124917H54.4886ZM60.2722 0.124917V9.21884H59.073V0.124917H60.2722Z" fill="white"/>
<path d="M65.5874 0.124917V9.21884H64.4007V0.124917H65.5874ZM68.5104 0.124917V1.11176H61.4839V0.124917H68.5104Z" fill="white"/>
<path d="M77.8105 5.48383H78.7224C78.7224 6.13756 78.535 6.6289 78.1602 6.95785C77.7896 7.28263 77.2858 7.44502 76.6487 7.44502C76.2074 7.44502 75.8243 7.34301 75.4995 7.13898C75.1789 6.93495 74.9291 6.6518 74.75 6.28955C74.5751 5.92729 74.4877 5.50674 74.4877 5.02789V4.30962C74.4877 3.83077 74.5751 3.41022 74.75 3.04796C74.9291 2.6857 75.1789 2.40256 75.4995 2.19853C75.8243 1.9945 76.2074 1.89249 76.6487 1.89249C77.2858 1.89249 77.7917 2.05488 78.1665 2.37966C78.5412 2.70444 78.7286 3.1937 78.7286 3.84743H77.8167C77.8167 3.4352 77.7168 3.13957 77.5169 2.96052C77.3212 2.78147 77.0318 2.69195 76.6487 2.69195C76.3739 2.69195 76.1428 2.76065 75.9555 2.89806C75.7681 3.03547 75.6265 3.22701 75.5307 3.47268C75.435 3.71418 75.3871 3.99108 75.3871 4.30337V5.02789C75.3871 5.34434 75.435 5.62541 75.5307 5.87108C75.6265 6.11258 75.7681 6.30204 75.9555 6.43945C76.1428 6.57685 76.3739 6.64556 76.6487 6.64556C77.0318 6.64556 77.3212 6.55603 77.5169 6.37699C77.7126 6.19794 77.8105 5.90022 77.8105 5.48383ZM73.0199 4.66563C73.0199 5.21943 73.1157 5.73575 73.3072 6.2146C73.4988 6.69344 73.7653 7.11191 74.1067 7.47001C74.4481 7.8281 74.8437 8.10708 75.2934 8.30695C75.7431 8.50681 76.224 8.60675 76.7362 8.60675C77.2483 8.60675 77.7272 8.50681 78.1727 8.30695C78.6224 8.10708 79.0159 7.8281 79.3532 7.47001C79.6946 7.11191 79.9611 6.69344 80.1527 6.2146C80.3442 5.73575 80.44 5.21943 80.44 4.66563C80.44 4.10767 80.3442 3.59135 80.1527 3.11667C79.9611 2.64198 79.6946 2.22768 79.3532 1.87375C79.0159 1.51565 78.6224 1.23876 78.1727 1.04305C77.7272 0.843186 77.2483 0.743253 76.7362 0.743253C76.224 0.743253 75.7431 0.843186 75.2934 1.04305C74.8437 1.23876 74.4481 1.51565 74.1067 1.87375C73.7653 2.22768 73.4988 2.64198 73.3072 3.11667C73.1157 3.59135 73.0199 4.10767 73.0199 4.66563ZM72.3017 4.66563C72.3017 4.00357 72.4162 3.3894 72.6452 2.82311C72.8742 2.25682 73.1927 1.7634 73.6008 1.34285C74.0088 0.918136 74.4794 0.58919 75.0123 0.356012C75.5495 0.118671 76.1241 0 76.7362 0C77.3483 0 77.9208 0.118671 78.4538 0.356012C78.9909 0.58919 79.4614 0.918136 79.8653 1.34285C80.2734 1.7634 80.5919 2.25682 80.821 2.82311C81.05 3.3894 81.1645 4.00357 81.1645 4.66563C81.1645 5.32769 81.05 5.94186 80.821 6.50815C80.5919 7.07444 80.2734 7.57202 79.8653 8.0009C79.4614 8.42562 78.9909 8.75665 78.4538 8.99399C77.9208 9.23133 77.3483 9.35 76.7362 9.35C76.1241 9.35 75.5495 9.23133 75.0123 8.99399C74.4794 8.75665 74.0088 8.42562 73.6008 8.0009C73.1927 7.57202 72.8742 7.07444 72.6452 6.50815C72.4162 5.94186 72.3017 5.32769 72.3017 4.66563Z" fill="white"/>
<path d="M89.3777 0.930628L86.3672 9.21884H85.1368L88.6033 0.124917H89.3965L89.3777 0.930628ZM91.901 9.21884L88.8843 0.930628L88.8656 0.124917H89.6588L93.1377 9.21884H91.901ZM91.7449 5.85234V6.83918H86.6358V5.85234H91.7449Z" fill="white"/>
<path d="M99.8707 8.23824V9.21884H95.3238V8.23824H99.8707ZM95.5611 0.124917V9.21884H94.3557V0.124917H95.5611Z" fill="white"/>
<path d="M106.766 8.23824V9.21884H102.219V8.23824H106.766ZM102.456 0.124917V9.21884H101.251V0.124917H102.456Z" fill="white"/>
<path d="M111.319 0.124917H114.33C115.013 0.124917 115.589 0.229014 116.06 0.437208C116.535 0.645402 116.895 0.953529 117.14 1.36159C117.39 1.76549 117.515 2.26307 117.515 2.85434C117.515 3.27073 117.43 3.65173 117.259 3.99733C117.093 4.33877 116.851 4.63024 116.535 4.87174C116.222 5.10909 115.848 5.28605 115.41 5.40264L115.073 5.5338H112.244L112.231 4.55321H114.367C114.8 4.55321 115.16 4.47826 115.448 4.32836C115.735 4.17429 115.952 3.96818 116.097 3.71002C116.243 3.45186 116.316 3.16663 116.316 2.85434C116.316 2.50458 116.247 2.19853 116.11 1.93621C115.972 1.67388 115.756 1.47193 115.46 1.33036C115.169 1.18462 114.792 1.11176 114.33 1.11176H112.525V9.21884H111.319V0.124917ZM116.635 9.21884L114.423 5.09659L115.679 5.09035L117.921 9.14389V9.21884H116.635Z" fill="white"/>
<path d="M120.494 0.124917V9.21884H119.289V0.124917H120.494Z" fill="white"/>
<path d="M129.407 4.69061V8.01964C129.295 8.18619 129.116 8.37357 128.87 8.58176C128.624 8.78579 128.285 8.96484 127.852 9.1189C127.423 9.2688 126.869 9.34375 126.191 9.34375C125.637 9.34375 125.127 9.24799 124.66 9.05645C124.198 8.86074 123.796 8.5776 123.455 8.20701C123.118 7.83226 122.855 7.3784 122.668 6.84542C122.485 6.30828 122.393 5.70036 122.393 5.02164V4.31587C122.393 3.63715 122.472 3.03131 122.63 2.49833C122.793 1.96535 123.03 1.51357 123.343 1.14299C123.655 0.768237 124.038 0.485092 124.492 0.293554C124.946 0.0978513 125.466 0 126.053 0C126.749 0 127.329 0.120753 127.796 0.362258C128.266 0.599599 128.633 0.928546 128.895 1.3491C129.162 1.76965 129.332 2.2485 129.407 2.78564H128.202C128.148 2.45669 128.039 2.15689 127.877 1.88624C127.719 1.61559 127.492 1.39906 127.196 1.23667C126.901 1.07012 126.52 0.98684 126.053 0.98684C125.633 0.98684 125.268 1.06387 124.96 1.21794C124.652 1.372 124.398 1.59269 124.198 1.87999C123.998 2.1673 123.848 2.51499 123.748 2.92305C123.653 3.33111 123.605 3.79122 123.605 4.30337V5.02164C123.605 5.54629 123.665 6.01473 123.786 6.42695C123.911 6.83918 124.088 7.19103 124.317 7.4825C124.546 7.76981 124.819 7.98841 125.135 8.13831C125.456 8.28821 125.81 8.36316 126.197 8.36316C126.626 8.36316 126.973 8.32777 127.24 8.25698C127.506 8.18203 127.715 8.09459 127.864 7.99466C128.014 7.89056 128.129 7.79271 128.208 7.7011V5.66496H126.103V4.69061H129.407Z" fill="white"/>
<path d="M137.346 4.0348V5.0154H132.424V4.0348H137.346ZM132.611 0.124917V9.21884H131.406V0.124917H132.611ZM138.395 0.124917V9.21884H137.196V0.124917H138.395Z" fill="white"/>
<path d="M143.71 0.124917V9.21884H142.523V0.124917H143.71ZM146.633 0.124917V1.11176H139.607V0.124917H146.633Z" fill="white"/>
<path d="M152.729 6.92037C152.729 6.70802 152.696 6.52064 152.629 6.35825C152.567 6.19169 152.454 6.04179 152.292 5.90855C152.134 5.77531 151.913 5.64831 151.63 5.52756C151.351 5.4068 150.997 5.28397 150.568 5.15905C150.118 5.02581 149.712 4.87799 149.35 4.7156C148.988 4.54904 148.678 4.35959 148.42 4.14723C148.161 3.93487 147.964 3.69128 147.826 3.41647C147.689 3.14165 147.62 2.82728 147.62 2.47335C147.62 2.11942 147.693 1.79255 147.839 1.49275C147.984 1.19295 148.193 0.93271 148.463 0.712024C148.738 0.487174 149.065 0.312291 149.444 0.187375C149.823 0.0624583 150.245 0 150.712 0C151.395 0 151.973 0.131162 152.448 0.393487C152.927 0.651648 153.291 0.991004 153.541 1.41156C153.791 1.82794 153.916 2.27348 153.916 2.74816H152.717C152.717 2.40672 152.644 2.10484 152.498 1.84252C152.352 1.57603 152.132 1.36784 151.836 1.21794C151.54 1.06387 151.166 0.98684 150.712 0.98684C150.283 0.98684 149.929 1.05138 149.65 1.18046C149.371 1.30954 149.163 1.48442 149.025 1.70511C148.892 1.9258 148.825 2.17771 148.825 2.46086C148.825 2.65239 148.865 2.82728 148.944 2.9855C149.027 3.13957 149.154 3.28322 149.325 3.41647C149.5 3.54971 149.721 3.67255 149.987 3.78497C150.258 3.89739 150.581 4.00566 150.955 4.10975C151.472 4.25549 151.917 4.41788 152.292 4.59693C152.667 4.77597 152.975 4.97792 153.216 5.20277C153.462 5.42346 153.643 5.67537 153.76 5.95852C153.88 6.2375 153.941 6.55395 153.941 6.90788C153.941 7.27847 153.866 7.61366 153.716 7.91346C153.566 8.21326 153.352 8.46934 153.073 8.6817C152.794 8.89406 152.458 9.05853 152.067 9.17512C151.68 9.28754 151.247 9.34375 150.768 9.34375C150.347 9.34375 149.933 9.28546 149.525 9.16887C149.121 9.05228 148.753 8.8774 148.42 8.64422C148.091 8.41104 147.826 8.12374 147.626 7.7823C147.431 7.4367 147.333 7.03696 147.333 6.5831H148.532C148.532 6.89539 148.592 7.16396 148.713 7.38881C148.834 7.6095 148.998 7.79271 149.206 7.93844C149.419 8.08418 149.658 8.19244 149.925 8.26323C150.195 8.32985 150.476 8.36316 150.768 8.36316C151.188 8.36316 151.544 8.30487 151.836 8.18828C152.127 8.07169 152.348 7.90513 152.498 7.68861C152.652 7.47209 152.729 7.21601 152.729 6.92037Z" fill="white"/>
<path d="M158.65 0.124917H161.661C162.344 0.124917 162.92 0.229014 163.391 0.437208C163.865 0.645402 164.226 0.953529 164.471 1.36159C164.721 1.76549 164.846 2.26307 164.846 2.85434C164.846 3.27073 164.761 3.65173 164.59 3.99733C164.423 4.33877 164.182 4.63024 163.865 4.87174C163.553 5.10909 163.178 5.28605 162.741 5.40264L162.404 5.5338H159.575L159.562 4.55321H161.698C162.131 4.55321 162.491 4.47826 162.779 4.32836C163.066 4.17429 163.282 3.96818 163.428 3.71002C163.574 3.45186 163.647 3.16663 163.647 2.85434C163.647 2.50458 163.578 2.19853 163.441 1.93621C163.303 1.67388 163.087 1.47193 162.791 1.33036C162.5 1.18462 162.123 1.11176 161.661 1.11176H159.856V9.21884H158.65V0.124917ZM163.965 9.21884L161.754 5.09659L163.01 5.09035L165.252 9.14389V9.21884H163.965Z" fill="white"/>
<path d="M172.31 8.23824V9.21884H167.494V8.23824H172.31ZM167.738 0.124917V9.21884H166.532V0.124917H167.738ZM171.673 4.0348V5.0154H167.494V4.0348H171.673ZM172.247 0.124917V1.11176H167.494V0.124917H172.247Z" fill="white"/>
<path d="M176.738 7.83851L179.418 0.124917H180.723L177.356 9.21884H176.426L176.738 7.83851ZM174.233 0.124917L176.888 7.83851L177.219 9.21884H176.288L172.928 0.124917H174.233Z" fill="white"/>
<path d="M187.724 8.23824V9.21884H182.909V8.23824H187.724ZM183.153 0.124917V9.21884H181.947V0.124917H183.153ZM187.087 4.0348V5.0154H182.909V4.0348H187.087ZM187.662 0.124917V1.11176H182.909V0.124917H187.662Z" fill="white"/>
<path d="M189.217 0.124917H192.228C192.911 0.124917 193.487 0.229014 193.958 0.437208C194.432 0.645402 194.793 0.953529 195.038 1.36159C195.288 1.76549 195.413 2.26307 195.413 2.85434C195.413 3.27073 195.328 3.65173 195.157 3.99733C194.99 4.33877 194.749 4.63024 194.432 4.87174C194.12 5.10909 193.745 5.28605 193.308 5.40264L192.971 5.5338H190.142L190.129 4.55321H192.265C192.698 4.55321 193.058 4.47826 193.346 4.32836C193.633 4.17429 193.85 3.96818 193.995 3.71002C194.141 3.45186 194.214 3.16663 194.214 2.85434C194.214 2.50458 194.145 2.19853 194.008 1.93621C193.87 1.67388 193.654 1.47193 193.358 1.33036C193.067 1.18462 192.69 1.11176 192.228 1.11176H190.423V9.21884H189.217V0.124917ZM194.532 9.21884L192.321 5.09659L193.577 5.09035L195.819 9.14389V9.21884H194.532Z" fill="white"/>
<path d="M199.91 7.83851L202.59 0.124917H203.895L200.528 9.21884H199.598L199.91 7.83851ZM197.405 0.124917L200.06 7.83851L200.391 9.21884H199.46L196.1 0.124917H197.405Z" fill="white"/>
<path d="M210.896 8.23824V9.21884H206.081V8.23824H210.896ZM206.325 0.124917V9.21884H205.119V0.124917H206.325ZM210.259 4.0348V5.0154H206.081V4.0348H210.259ZM210.834 0.124917V1.11176H206.081V0.124917H210.834Z" fill="white"/>
<path d="M214.85 9.21884H212.951L212.964 8.23824H214.85C215.5 8.23824 216.041 8.10292 216.474 7.83226C216.907 7.55745 217.232 7.17437 217.448 6.68303C217.669 6.18753 217.779 5.60875 217.779 4.94669V4.39082C217.779 3.87033 217.717 3.40814 217.592 3.00424C217.467 2.59618 217.284 2.25266 217.042 1.97368C216.801 1.69054 216.505 1.4761 216.155 1.33036C215.81 1.18462 215.412 1.11176 214.963 1.11176H212.914V0.124917H214.963C215.558 0.124917 216.101 0.22485 216.593 0.424716C217.084 0.620419 217.507 0.905645 217.861 1.28039C218.219 1.65098 218.493 2.10068 218.685 2.62949C218.877 3.15414 218.972 3.74541 218.972 4.40331V4.94669C218.972 5.60459 218.877 6.19794 218.685 6.72675C218.493 7.2514 218.217 7.69902 217.854 8.06961C217.496 8.44019 217.063 8.72542 216.555 8.92528C216.051 9.12099 215.483 9.21884 214.85 9.21884ZM213.595 0.124917V9.21884H212.389V0.124917H213.595Z" fill="white"/>
</svg>
