<svg width="40" height="29" viewBox="0 0 40 29" fill="none" xmlns="http://www.w3.org/2000/svg">
<path d="M6.01384 26.9365C5.88801 26.9978 5.75166 26.992 5.6048 26.919C5.45354 26.837 5.34942 26.7376 5.29244 26.6207C5.2749 26.5848 5.26405 26.5511 5.25989 26.5198C5.24235 26.4838 5.22931 26.4457 5.22077 26.4054C5.22121 26.3606 5.21935 26.3226 5.21518 26.2913C5.20664 26.2509 5.19809 26.2106 5.18954 26.1703L5.11163 25.9079L5.06035 25.6658C5.04347 25.5628 5.02255 25.4173 4.99757 25.2292C4.9682 25.0321 4.94323 24.844 4.92263 24.6649C4.91102 24.4814 4.90325 24.3628 4.8993 24.3091C4.87959 24.0406 4.88684 23.7589 4.92106 23.4641C4.93137 23.3255 4.93718 23.1892 4.93851 23.055C4.94443 22.9075 4.94587 22.7622 4.94281 22.619C4.93886 22.5653 4.93942 22.5094 4.94446 22.4513C4.95411 22.3799 4.96595 22.3129 4.97999 22.2504C4.99402 22.1879 5.00356 22.1277 5.0086 22.0696C5.01365 22.0115 5.02319 21.9512 5.03722 21.8887C5.03744 21.8664 5.03536 21.8507 5.03098 21.8417C5.03558 21.8283 5.03569 21.8171 5.03131 21.8082L5.02473 21.7947C5.02911 21.8037 5.0358 21.806 5.04479 21.8016C5.00578 21.676 4.98682 21.5573 4.98792 21.4455C4.99801 21.3293 5.01479 21.2154 5.03825 21.1038C5.05755 20.9609 5.08123 20.827 5.1093 20.702C5.14197 20.5637 5.16763 20.4566 5.18626 20.3808C5.20995 20.2468 5.18025 20.0833 5.09718 19.8902C5.0231 19.6927 4.99549 19.5448 5.01435 19.4466L5.11794 19.1457L5.20805 18.8514C5.22647 18.798 5.24039 18.7467 5.24982 18.6976C5.25487 18.6395 5.26211 18.5859 5.27153 18.5368C5.26803 18.4383 5.28021 18.3378 5.30805 18.2352C5.3359 18.1326 5.36593 18.0346 5.39816 17.941C5.42601 17.8384 5.45605 17.7403 5.48828 17.6467C5.50231 17.5842 5.51404 17.5284 5.52347 17.4793C5.5375 17.4168 5.54704 17.3565 5.55209 17.2985C5.55713 17.2404 5.56437 17.1868 5.5738 17.1377C5.58783 17.0752 5.60406 17.0172 5.62248 16.9637C5.67378 16.7496 5.74066 16.5445 5.82309 16.3485C5.90114 16.1436 5.98369 15.9364 6.07073 15.7271C6.11194 15.6291 6.15097 15.5266 6.1878 15.4196C6.23362 15.3083 6.27945 15.1969 6.32527 15.0856C6.40814 14.8449 6.51962 14.6514 6.65971 14.5052L6.91061 14.2326C6.94679 14.1927 6.98296 14.1528 7.01913 14.113C7.06429 14.0687 7.10057 14.0176 7.12798 13.9597C7.20404 13.956 7.31584 13.9571 7.46337 13.963C7.61551 13.9556 7.76073 13.9682 7.89905 14.0009C8.03299 14.0246 8.11969 14.0768 8.15914 14.1577C8.17667 14.1937 8.18292 14.2407 8.17787 14.2988C8.17261 14.3793 8.10212 14.4971 7.96642 14.6523C7.83533 14.7941 7.74479 14.905 7.6948 14.985C7.61763 15.1005 7.56271 15.2275 7.53004 15.3658C7.50702 15.4326 7.47731 15.4972 7.44092 15.5594C7.40453 15.6217 7.36364 15.6861 7.31826 15.7528L7.2913 15.7659C7.26367 15.8462 7.21127 15.944 7.1341 16.0596L6.9368 16.3394C6.90961 16.3749 6.89142 16.406 6.88221 16.4328C6.8776 16.4461 6.873 16.4595 6.86839 16.4729C6.86379 16.4862 6.86357 16.5086 6.86773 16.5399C6.86751 16.5623 6.86718 16.5958 6.86674 16.6406C6.87112 16.6496 6.86882 16.6562 6.85983 16.6606C6.85085 16.665 6.84854 16.6717 6.85293 16.6807L6.82563 16.7274L6.81873 16.7474L6.89304 16.6945L6.9394 16.7553C6.95255 16.7823 6.94565 16.8023 6.91868 16.8155C6.88645 16.9091 6.85203 16.9982 6.81542 17.0828C6.78341 17.1541 6.75129 17.2365 6.71906 17.3301L6.53259 17.8716C6.50036 17.9652 6.486 18.0613 6.4895 18.1597C6.47941 18.2759 6.4383 18.3627 6.36618 18.4201L6.37275 18.4336C6.41659 18.5235 6.40178 18.6642 6.32834 18.8558C6.25051 19.0384 6.18627 19.2032 6.13562 19.3503C6.09923 19.4126 6.083 19.4705 6.08695 19.5242L6.07346 19.5308L6.08004 19.5443C6.11511 19.6162 6.1185 19.7258 6.09021 19.8731C6.05754 20.0114 5.99177 20.1047 5.89291 20.1529L5.79427 19.9507L5.82157 19.904C5.85314 19.8775 5.86684 19.8486 5.86267 19.8172L5.94357 19.7778L5.95047 19.7577L5.93699 19.7643C5.95717 19.5319 5.9494 19.4133 5.91366 19.4085C5.88692 19.3993 5.84823 19.4682 5.79758 19.6153C5.75154 19.749 5.70505 19.9275 5.65813 20.1506C5.62019 20.3694 5.60012 20.5906 5.59792 20.8142C5.64153 20.9264 5.63572 21.0628 5.58047 21.2232C5.54319 21.3749 5.5149 21.5222 5.49561 21.6651L5.50218 21.6786C5.49625 21.8262 5.48813 21.9692 5.47782 22.1077C5.46313 22.2373 5.44843 22.3668 5.43374 22.4964C5.41904 22.6259 5.40884 22.7533 5.40314 22.8785C5.39305 22.9947 5.38964 23.1131 5.39292 23.2339C5.38611 23.4709 5.39037 23.7192 5.4057 23.9787C5.42564 24.2249 5.45642 24.5047 5.49805 24.8182L5.63019 25.705C5.65561 25.8484 5.68541 26.0007 5.7196 26.1621C5.75839 26.31 5.80836 26.4581 5.86951 26.6063C5.86973 26.584 5.87214 26.5661 5.87675 26.5527C5.88596 26.526 5.89067 26.5014 5.89089 26.4791L5.9126 26.3183C5.92247 26.2244 5.93234 26.1306 5.94221 26.0368C5.9477 25.934 5.95319 25.8312 5.95867 25.7284C5.96854 25.6346 5.98291 25.5385 6.00176 25.4403C6.02062 25.3421 6.03718 25.2506 6.05143 25.1658C6.08893 24.9917 6.12565 24.8959 6.1616 24.8784C6.18857 24.8652 6.20862 24.8721 6.22178 24.8991C6.23931 24.9351 6.24259 25.0558 6.23162 25.2615C6.22963 25.4627 6.21844 25.6907 6.19804 25.9454C6.17764 26.2001 6.14858 26.4257 6.11086 26.6221C6.08214 26.8141 6.0498 26.9189 6.01384 26.9365ZM6.53755 17.3685C6.56474 17.333 6.58523 17.2952 6.59905 17.2551C6.62185 17.2106 6.64235 17.1728 6.66054 17.1417C6.69255 17.0704 6.70417 17.0258 6.6954 17.0078L6.62208 16.9602C6.59468 17.018 6.56716 17.0871 6.53954 17.1673C6.5209 17.2432 6.52024 17.3102 6.53755 17.3685ZM6.35373 17.6418C6.38091 17.6063 6.41259 17.5686 6.44876 17.5287C6.48055 17.4798 6.51234 17.4309 6.54413 17.382L6.42312 17.4077L6.35373 17.6418ZM10.6367 26.1837C10.457 26.2714 10.2779 26.292 10.0994 26.2455C9.92101 26.199 9.74718 26.1392 9.57795 26.066C9.49772 26.0383 9.43974 26.0221 9.40401 26.0173C9.34592 26.0122 9.29934 25.9738 9.26427 25.9019L9.31853 25.842L9.31195 25.8285C9.04496 25.6917 8.82992 25.5018 8.66684 25.2587C8.57412 25.137 8.4791 25.022 8.38178 24.9137C8.28906 24.792 8.19623 24.6816 8.10329 24.5822L8.13025 24.5691L8.1102 24.5622C8.06592 24.517 8.03282 24.472 8.0109 24.427L7.94514 24.2922C7.89254 24.1844 7.86416 24.1148 7.85999 24.0834C7.85539 24.0968 7.8396 24.11 7.81264 24.1232L7.79916 24.1298L7.78601 24.1028L7.75904 24.116C7.75488 24.0846 7.73965 24.042 7.71335 23.988L7.66732 23.8937C7.65417 23.8667 7.6146 23.797 7.54863 23.6845C7.48725 23.5587 7.41032 23.4238 7.31782 23.2797C7.23431 23.1313 7.15277 23.0098 7.0732 22.9151C6.99363 22.8204 6.93138 22.784 6.88644 22.8059C6.86846 22.8147 6.83876 22.8792 6.79732 22.9996C6.75588 23.1199 6.71203 23.2581 6.66577 23.4142C6.61512 23.5613 6.57127 23.6995 6.53421 23.8288C6.50176 23.9448 6.48543 24.014 6.48521 24.0363C6.45758 24.1165 6.43226 24.1901 6.40924 24.2569C6.38183 24.3148 6.34994 24.3749 6.31354 24.4371L6.25436 24.3158C6.25941 24.2577 6.26664 24.2041 6.27607 24.155C6.28112 24.0969 6.28167 24.041 6.27773 23.9873C6.27379 23.9336 6.27434 23.8777 6.27938 23.8196C6.28443 23.7615 6.29166 23.7079 6.30109 23.6588C6.31052 23.6097 6.32214 23.5651 6.33596 23.525C6.34538 23.4759 6.35931 23.4246 6.37772 23.3711C6.39154 23.331 6.40535 23.2909 6.41916 23.2508C6.43297 23.2106 6.4401 23.1682 6.44054 23.1235C6.47277 23.0299 6.48944 22.9272 6.49054 22.8154C6.49164 22.7036 6.50831 22.6009 6.54054 22.5073C6.56422 22.3734 6.60851 22.1904 6.67341 21.9585C6.7473 21.7222 6.8271 21.5665 6.91282 21.4913L7.19693 21.2526L7.26434 21.2197C7.29087 21.2513 7.32407 21.2851 7.36397 21.3213C7.40386 21.3575 7.44814 21.4026 7.4968 21.4568C7.58536 21.5471 7.64936 21.6327 7.68882 21.7136C7.76334 21.8664 7.83786 22.0192 7.91239 22.172C7.99151 22.3114 8.06834 22.4575 8.14286 22.6103L8.64918 23.6484C8.66672 23.6844 8.67965 23.7337 8.68797 23.7964C8.71011 23.819 8.72776 23.8438 8.74091 23.8707C8.75866 23.8843 8.77412 23.9046 8.78727 23.9316L8.80075 23.925L8.80733 23.9385L8.87507 23.872C8.95397 24.0338 9.02411 24.1776 9.08548 24.3035C9.15584 24.4249 9.26424 24.5445 9.41066 24.6622C9.45078 24.676 9.47741 24.6964 9.49056 24.7234C9.49933 24.7414 9.49473 24.7547 9.47675 24.7635L9.4899 24.7905L9.40901 24.8299C9.40002 24.8343 9.39092 24.8499 9.38172 24.8766L9.36823 24.8832C9.39015 24.9281 9.4078 24.9529 9.42117 24.9575L9.46062 25.0384L9.5356 24.9184C9.68092 25.1479 9.86472 25.3308 10.087 25.4672C10.3183 25.5992 10.5507 25.6082 10.7844 25.4942L10.8383 25.4679C10.8429 25.4545 10.8542 25.4435 10.8722 25.4347L10.9676 25.2881C10.9858 25.2569 11.0018 25.2213 11.0156 25.1812C11.0338 25.1501 11.0565 25.1167 11.0837 25.0812C11.1157 25.01 11.141 24.9364 11.1596 24.8606C11.1783 24.7848 11.1547 24.6794 11.089 24.5446C11.1332 24.5898 11.1664 24.6236 11.1886 24.6462C11.2151 24.6778 11.2372 24.7004 11.255 24.714L11.2747 24.7544C11.3054 24.8173 11.3137 24.88 11.2997 24.9425C11.2901 25.0139 11.2782 25.0809 11.2642 25.1434C11.2308 25.3488 11.1663 25.5472 11.0705 25.7385C10.979 25.9389 10.8345 26.0873 10.6367 26.1837ZM6.18956 24.7646C6.15361 24.7822 6.12686 24.773 6.10933 24.737C6.10056 24.719 6.09651 24.6765 6.09717 24.6094C6.10682 24.538 6.13411 24.4913 6.17905 24.4693C6.21501 24.4518 6.24832 24.4745 6.27901 24.5374C6.32723 24.6363 6.29741 24.712 6.18956 24.7646ZM12.3427 24.7342C12.2439 24.7824 12.1453 24.7971 12.0471 24.7782C11.9623 24.764 11.8709 24.7362 11.7729 24.695C11.5815 24.5992 11.4191 24.5171 11.2856 24.4487C11.1521 24.3803 11.0328 24.2382 10.9275 24.0225L10.7237 23.6046C10.6842 23.5237 10.6475 23.3914 10.6136 23.2077C10.5752 23.015 10.548 22.8224 10.5321 22.63C10.5251 22.4331 10.5354 22.2946 10.563 22.2143C10.5168 21.9142 10.4862 21.612 10.4713 21.3078C10.4564 21.0035 10.4839 20.7064 10.5539 20.4164C10.3588 20.2445 10.193 20.0528 10.0564 19.8412C9.91548 19.6207 9.78802 19.3936 9.67405 19.1599C9.63898 19.088 9.60829 19.0251 9.58199 18.9711C9.56029 18.9038 9.5364 18.8321 9.51032 18.7558L9.52446 18.6821L9.53137 18.6621L9.50507 18.6081C9.49169 18.6035 9.48063 18.5922 9.47186 18.5743C9.45432 18.5383 9.43931 18.4733 9.42682 18.3793C9.41433 18.2852 9.39735 18.1934 9.37587 18.1037C9.36338 18.0097 9.35494 17.9582 9.35056 17.9492C9.34179 17.9312 9.35319 17.9089 9.38476 17.8824L9.43902 17.8226C9.44362 17.8092 9.45952 17.7848 9.4867 17.7493L9.514 17.7026C9.54228 17.5553 9.62187 17.4219 9.75274 17.3024C9.89261 17.1786 10.0255 17.0859 10.1513 17.0246C10.4209 16.8931 10.6647 16.891 10.8826 17.0184C11.1051 17.1324 11.3093 17.2887 11.4951 17.4873C11.5361 17.4117 11.5881 17.3585 11.651 17.3278C11.678 17.3147 11.7048 17.3127 11.7316 17.3219C11.8929 17.2877 12.092 17.2852 12.3287 17.3144C12.5744 17.3392 12.7302 17.419 12.7959 17.5538L12.8091 17.5808C12.831 17.6257 12.8168 17.7105 12.7663 17.8353C12.7159 17.96 12.6497 18.098 12.5677 18.2492C12.4903 18.3871 12.4107 18.5205 12.329 18.6494C12.2562 18.7739 12.2039 18.8606 12.1721 18.9095C12.1267 18.9761 12.0791 19.0383 12.0294 19.0959C11.9978 19.1224 11.9751 19.1558 11.9613 19.1959C11.9431 19.227 11.9204 19.2603 11.8932 19.2958C11.8658 19.3537 11.8384 19.4116 11.811 19.4694C11.7926 19.5229 11.7719 19.5831 11.7489 19.65L11.6867 19.8305C11.6729 19.8706 11.6636 19.9085 11.6587 19.9442C11.6495 19.971 11.6358 19.9999 11.6176 20.031C11.6084 20.0578 11.5879 20.0956 11.5561 20.1445C11.5333 20.189 11.5082 20.2402 11.4808 20.298C11.408 20.4225 11.3825 20.5184 11.4042 20.5857C11.3996 20.5991 11.4013 20.6483 11.4095 20.7334C11.4222 20.8051 11.4351 20.8544 11.4482 20.8814C11.4965 20.9802 11.5691 21.095 11.6662 21.2256C11.759 21.3473 11.863 21.4579 11.9783 21.5574C12.0403 21.6162 12.0797 21.6971 12.0966 21.8001C12.1091 21.8942 12.0663 21.9317 11.968 21.9129C11.8611 21.8761 11.7521 21.8124 11.6412 21.7218C11.5303 21.6313 11.4572 21.5612 11.4219 21.5117C11.4041 21.4981 11.4021 21.4824 11.4157 21.4647C11.4293 21.4469 11.4227 21.4334 11.3959 21.4242L11.3558 21.4104C11.3424 21.4058 11.3314 21.3945 11.3226 21.3765C11.3226 21.3765 11.3092 21.3719 11.2825 21.3627C11.2457 21.4697 11.2284 21.6283 11.2308 21.8385C11.2289 22.0398 11.2318 22.1941 11.2397 22.3015L11.2509 22.5297C11.2541 22.6505 11.2468 22.7153 11.2288 22.724C11.1929 22.7416 11.1639 22.7279 11.142 22.6829L11.1354 22.6694C11.1091 22.6155 11.0941 22.5505 11.0904 22.4745L11.0661 22.2193C11.0562 22.3131 11.0552 22.4137 11.0631 22.5211C11.0756 22.6152 11.0884 22.6757 11.1016 22.7027L11.1081 22.7161L11.1348 22.7365C11.1392 22.7455 11.148 22.7523 11.1614 22.7569L11.1877 22.8108C11.1787 22.8152 11.1786 22.8264 11.1874 22.8444C11.2132 22.943 11.2346 23.0439 11.2515 23.1469C11.2684 23.2499 11.2852 23.353 11.3021 23.456C11.3181 23.6485 11.3787 23.8526 11.4839 24.0683C11.554 24.2121 11.6424 24.3247 11.7489 24.4063C11.8554 24.4879 11.9851 24.4914 12.1379 24.4168C12.2188 24.3774 12.2841 24.3288 12.3339 24.2712C12.3926 24.2092 12.4631 24.0913 12.5453 23.9177C12.6409 23.7487 12.7277 23.5617 12.8058 23.3568C12.8795 23.1428 12.935 22.9488 12.9725 22.7748C13.019 22.5963 13.0269 22.4757 12.9962 22.4128C13.0013 22.3547 13.0153 22.2922 13.0383 22.2253C13.057 22.1495 13.0463 22.0935 13.0064 22.0573C13.0356 21.8206 13.0293 21.5566 12.9874 21.2655C12.9502 20.961 12.8928 20.6608 12.8152 20.3649C12.7466 20.0645 12.6709 19.8066 12.588 19.5911C12.5709 19.5105 12.5603 19.4545 12.5561 19.4231C12.5566 19.3784 12.5591 19.3494 12.5637 19.336L12.5706 19.3159C12.5798 19.2892 12.5756 19.2578 12.5581 19.2219C12.5493 19.2039 12.5384 19.1814 12.5252 19.1545C12.5121 19.1275 12.4944 19.1027 12.4723 19.0802C12.428 19.035 12.3949 18.9899 12.373 18.945C12.3555 18.9091 12.3448 18.853 12.3411 18.777C12.3374 18.7009 12.3625 18.6497 12.4164 18.6234C12.4793 18.5927 12.5529 18.6181 12.6371 18.6994C12.7212 18.7807 12.8008 18.8754 12.8758 18.9835C12.9553 19.0782 13.0105 19.157 13.0411 19.2199C13.142 19.4267 13.2335 19.6713 13.3157 19.9539C13.3935 20.2275 13.4468 20.4851 13.4757 20.7269C13.4961 20.9284 13.4965 21.1118 13.477 21.277C13.4665 21.4379 13.4491 21.6189 13.4247 21.8199L13.3951 22.1014L13.3872 22.2221C13.3738 22.2175 13.3736 22.2398 13.3865 22.2891C13.4041 22.3251 13.4039 22.3475 13.3859 22.3562C13.3769 22.3606 13.3723 22.374 13.3721 22.3963C13.3765 22.4053 13.3763 22.4165 13.3717 22.4299C13.3619 22.5237 13.3386 22.6129 13.302 22.6975C13.2836 22.751 13.2652 22.8045 13.2468 22.858C13.233 22.8981 13.2258 22.9405 13.2254 22.9852C13.1967 23.1773 13.1453 23.3914 13.0715 23.6277C13.0109 23.8686 12.9193 24.0914 12.7965 24.2959C12.6827 24.496 12.5315 24.6421 12.3427 24.7342ZM10.72 19.9014L10.7203 19.8679L10.6947 19.7469C10.6646 19.6169 10.6956 19.4294 10.7874 19.1843C10.8793 18.9392 10.9528 18.7365 11.0081 18.576C11.0539 18.4646 11.0954 18.3443 11.1324 18.215C11.1695 18.0856 11.2131 17.9698 11.2633 17.8674C11.2103 17.8043 11.1238 17.7296 11.0039 17.6435C10.893 17.5529 10.7796 17.4802 10.6639 17.4254C10.5528 17.3573 10.4657 17.3385 10.4028 17.3692C10.3039 17.4174 10.2338 17.5017 10.1924 17.622L10.1785 17.6622C10.1827 17.6935 10.1713 17.7158 10.1443 17.7289L10.0967 17.8022C10.101 17.8112 10.0987 17.8179 10.0898 17.8223L10.1029 17.8493C10.1064 17.9477 10.1076 18.0528 10.1065 18.1646C10.0971 18.2137 10.0921 18.2606 10.0917 18.3053C10.0959 18.3367 10.0978 18.3635 10.0976 18.3859C10.1272 18.5606 10.1635 18.7376 10.2064 18.9169C10.2584 19.0919 10.3238 19.2602 10.4027 19.422C10.4465 19.5119 10.4949 19.5996 10.5477 19.6851C10.5961 19.7616 10.6536 19.8337 10.72 19.9014ZM15.2307 22.4578C15.1408 22.5016 15.0425 22.494 14.9357 22.4348C14.838 22.3712 14.7715 22.3034 14.7365 22.2315C14.7233 22.2046 14.7126 22.1597 14.7043 22.0971C14.7045 22.0747 14.7047 22.0523 14.7049 22.03C14.7051 22.0076 14.7054 21.9853 14.7056 21.9629C14.6973 21.9002 14.6843 21.8509 14.6668 21.8149C14.6493 21.779 14.6363 21.7297 14.628 21.667C14.6153 21.5953 14.6049 21.5169 14.5968 21.4318C14.5887 21.3468 14.5829 21.2551 14.5794 21.1566C14.5798 21.1119 14.5734 21.0761 14.5603 21.0491C14.5428 21.0132 14.5341 20.984 14.5343 20.9616L14.5208 20.9682C14.4807 20.9544 14.4585 20.943 14.4541 20.934L14.461 20.914C14.4571 20.8602 14.4577 20.7932 14.463 20.7127C14.4682 20.6323 14.489 20.5721 14.5251 20.5322C14.526 20.4428 14.5294 20.3243 14.5354 20.1767C14.5369 20.0202 14.5316 19.8726 14.5196 19.7338C14.5122 19.5817 14.4931 19.4742 14.4624 19.4113L14.4696 19.3577L14.4427 19.3708L14.4098 19.3034L14.4105 19.2363L14.3365 19.2557L14.3638 19.209L14.3506 19.1821C14.3239 19.1729 14.3061 19.1593 14.2974 19.1413C14.2886 19.1233 14.2865 19.1076 14.2911 19.0943L14.2658 18.9397L14.2471 18.7987C14.2201 18.8118 14.2 18.8049 14.1869 18.7779C14.1387 18.6791 14.1195 18.5827 14.1294 18.4889C14.1217 18.3591 14.0981 18.2538 14.0587 18.1729L14.0455 18.1459C14.0365 18.1503 14.0277 18.1435 14.0189 18.1256L13.9857 18.0917L13.9725 18.0647C13.9636 18.0691 13.9569 18.0668 13.9525 18.0578C13.9437 18.0398 13.9462 18.0108 13.9601 17.9707L13.9946 17.8704C13.9499 17.8699 13.9208 17.8674 13.9074 17.8628C13.8627 17.8624 13.8337 17.8599 13.8203 17.8553L13.8137 17.8418C13.8045 17.8685 13.7866 17.8773 13.7598 17.8681L13.6858 17.8875C13.6678 17.8962 13.6342 17.9071 13.5849 17.92C13.5402 17.9196 13.5112 17.9059 13.4981 17.8789C13.4893 17.8609 13.4985 17.8342 13.5257 17.7987C13.5485 17.7542 13.5689 17.7275 13.5869 17.7188C13.6855 17.6929 13.8245 17.6585 14.0038 17.6156C14.1831 17.5726 14.3578 17.543 14.5279 17.5268C14.7027 17.4972 14.821 17.5118 14.8831 17.5706C14.9186 17.5977 14.9495 17.6383 14.9758 17.6922C15.0109 17.7641 15.0367 17.8628 15.0534 17.9882C15.07 18.1136 15.078 18.2098 15.0774 18.2769C15.0949 18.3128 15.0857 18.3396 15.0497 18.3571L15.0632 18.3505C15.0628 18.3952 15.06 18.4466 15.055 18.5047C15.0499 18.5628 15.0293 18.6118 14.9932 18.6517L15.0264 18.6856C15.0665 18.6994 15.0975 18.7288 15.1194 18.7737C15.1457 18.8276 15.1363 18.8767 15.0911 18.921L15.0908 18.9546L15.1237 19.022C15.1544 19.0849 15.156 19.1453 15.1286 19.2032C15.1371 19.2435 15.1454 19.3174 15.1532 19.4248C15.1567 19.5232 15.1494 19.588 15.1312 19.6191L15.1371 19.6997L15.1437 19.7132C15.1568 19.7401 15.1544 19.758 15.1365 19.7667L15.1296 19.7868C15.1289 19.8539 15.117 19.9209 15.094 19.9877C15.0892 20.0234 15.0844 20.0592 15.0796 20.0949C15.0793 20.1173 15.097 20.142 15.1325 20.1692L15.119 20.1758C15.1322 20.2028 15.1342 20.2184 15.1253 20.2228C15.1204 20.2585 15.1178 20.2988 15.1174 20.3435C15.1125 20.3792 15.092 20.417 15.0559 20.4569C15.0686 20.5286 15.0768 20.6025 15.0805 20.6786C15.0932 20.7502 15.1036 20.8286 15.1117 20.9137C15.1277 21.1061 15.1527 21.2942 15.1867 21.4779C15.2535 21.5009 15.3229 21.4949 15.3948 21.4598C15.4218 21.4467 15.4487 21.4335 15.4757 21.4204C15.4983 21.3983 15.5209 21.3761 15.5434 21.354C15.5526 21.3272 15.573 21.3006 15.6046 21.2741C15.6318 21.2386 15.6521 21.2231 15.6654 21.2277C15.8281 21.0594 15.9619 20.8661 16.067 20.648C16.1676 20.4209 16.2572 20.1825 16.3356 19.9329L16.3689 19.9667C16.4802 19.5564 16.554 19.1032 16.5902 18.6071C16.631 18.0976 16.6225 17.6011 16.5647 17.1175C16.5068 16.634 16.399 16.2304 16.2412 15.9068C16.1184 15.6552 16.008 15.5199 15.9098 15.501C15.8116 15.4822 15.6456 15.5297 15.4119 15.6437C15.349 15.6744 15.2929 15.6962 15.2436 15.7091C15.1899 15.7131 15.1433 15.6746 15.1038 15.5937C15.1442 15.5852 15.2162 15.5389 15.3199 15.455C15.4282 15.3576 15.4959 15.2912 15.5231 15.2557C15.8017 15.1198 16.0592 15.0888 16.2955 15.1627C16.5274 15.2276 16.7135 15.4039 16.8538 15.6915C16.9678 15.9252 17.0389 16.1964 17.0671 16.5053C17.1 16.8008 17.1174 17.076 17.1194 17.331C17.118 17.4651 17.0914 17.6728 17.0394 17.9541C16.9921 18.222 16.9333 18.5121 16.8631 18.8245C16.7886 19.1278 16.7166 19.4022 16.6471 19.6475C16.5775 19.8928 16.4921 20.1625 16.3909 20.4567C16.2896 20.7509 16.1818 21.0204 16.0676 21.2652C15.958 21.4967 15.8468 21.6566 15.7341 21.7449C15.7247 21.7941 15.6859 21.8742 15.6177 21.9853C15.5541 22.0831 15.4861 22.183 15.4135 22.2852C15.3366 22.3783 15.2756 22.4359 15.2307 22.4578ZM15.0177 20.2419C15.0133 20.2329 15.0112 20.2284 15.0112 20.2284C15.0201 20.224 15.0246 20.2218 15.0246 20.2218L15.0315 20.2018L15.0049 20.1814C15.0047 20.2037 15.009 20.2239 15.0177 20.2419ZM19.6276 20.2799C19.5287 20.3281 19.4233 20.3629 19.3113 20.3841C19.1411 20.4003 18.925 20.3222 18.6628 20.1496L18.7575 20.0701L18.6303 20.0487L18.358 19.7642L18.3446 19.7708C18.3224 19.7482 18.2982 19.71 18.2719 19.6561L18.2259 19.5617C18.2083 19.5257 18.2001 19.4519 18.2012 19.3401C18.2023 19.2283 18.2011 19.1231 18.1976 19.0247L18.076 19.1174L18.0431 19.05C18.0477 19.0367 18.0502 19.0076 18.0506 18.9629C18.0465 18.9315 18.0602 18.9026 18.0918 18.8761C18.1051 18.8807 18.1162 18.892 18.125 18.91L18.1388 18.8698L18.1059 18.8024C18.0884 18.7665 18.0708 18.7305 18.0533 18.6946C18.0404 18.6453 18.0408 18.6005 18.0546 18.5604C18.0283 18.5065 18.0175 18.4728 18.0221 18.4595L18.0092 18.399L18.0362 18.3858L18.0099 18.3319L18.0382 18.1846C18.0612 18.1177 18.0772 18.0821 18.0862 18.0777L18.0796 18.0642C18.075 18.0776 18.0637 18.0887 18.0458 18.0974C18.0098 18.115 17.9831 18.1058 17.9655 18.0698C17.9612 18.0608 17.9613 18.0497 17.9659 18.0363L17.933 17.9689C17.9376 17.9555 17.9311 17.9308 17.9136 17.8949C17.8961 17.8589 17.8739 17.8364 17.8472 17.8271L17.8889 17.6733L17.9494 17.6604L17.9294 17.6535L17.9564 17.6404L17.9633 17.6203L17.9314 17.4523L18.0514 17.5273L17.98 17.2784C17.9671 17.229 17.9542 17.1797 17.9413 17.1304C17.9283 17.0811 17.9154 17.0317 17.9025 16.9824L18.0442 16.8966L17.9916 16.7887L17.9511 16.8085L17.9183 16.7411L17.9528 16.6408L17.9594 16.6543L17.9663 16.6342L17.9334 16.5668L18.0153 16.4267L17.989 16.3728C18.0344 16.3062 18.0576 16.2169 18.0587 16.1051C18.055 16.0291 18.0982 15.9579 18.1883 15.8917L18.1074 15.9312L18.1143 15.9111L18.0801 15.9779L18.0275 15.87L18.0544 15.8569L18.0548 15.8233L18.0683 15.8168L18.0689 15.7497L18.036 15.6823C18.0724 15.62 18.1044 15.5488 18.1321 15.4686C18.1687 15.3839 18.1716 15.3102 18.141 15.2473L18.1752 15.1805L18.1489 15.1266L18.2159 15.1272L18.3123 14.88L18.286 14.8261L18.361 14.706L18.3754 14.5988C18.3623 14.5719 18.3692 14.5518 18.3962 14.5387C18.4052 14.5343 18.4275 14.5345 18.4632 14.5393C18.5036 14.5308 18.5349 14.5266 18.5573 14.5268L18.6382 14.4874C18.782 14.4173 18.9521 14.401 19.1485 14.4388C19.3405 14.4675 19.521 14.5296 19.6901 14.6252C19.8591 14.7208 19.9786 14.8405 20.0488 14.9843C20.0707 15.0293 20.1061 15.0676 20.155 15.0994C20.1771 15.122 20.1948 15.1468 20.2079 15.1737C20.2301 15.1963 20.2499 15.2256 20.2674 15.2615L20.2937 15.3155C20.3113 15.3514 20.3177 15.3761 20.3131 15.3894C20.3357 15.8235 20.2663 16.2857 20.1049 16.776C19.9525 17.262 19.7516 17.6827 19.5021 18.038C19.4477 18.109 19.3844 18.1844 19.312 18.2642C19.2397 18.344 19.1586 18.4058 19.0687 18.4497C19.0417 18.4628 19.0216 18.4671 19.0082 18.4625L18.9007 18.4816C18.9232 18.4594 18.9527 18.4172 18.9891 18.355C19.0027 18.3372 19.0163 18.3195 19.0299 18.3017C19.0435 18.2839 19.0571 18.2662 19.0707 18.2484L19.1318 18.1685C19.1498 18.1598 19.1611 18.1487 19.1657 18.1353L19.1457 18.1284C19.1281 18.0925 19.1418 18.0635 19.1868 18.0416C19.2232 17.9794 19.2571 17.935 19.2887 17.9084L19.4038 17.8022C19.449 17.758 19.4873 17.7226 19.5189 17.696C19.5551 17.6562 19.5644 17.6182 19.5468 17.5823C19.5696 17.5378 19.5861 17.4574 19.5962 17.3413C19.6065 17.2027 19.6186 17.1134 19.6324 17.0733L19.7406 16.9871L19.7767 16.7191L19.7235 16.6784L19.805 16.5718L19.7787 16.5179L19.8057 16.5048C19.852 16.3487 19.8823 16.217 19.8968 16.1099C19.9159 15.9893 19.9128 15.8461 19.8876 15.6804C19.8788 15.6624 19.8879 15.6469 19.9149 15.6337L19.9083 15.6202C19.9097 15.4861 19.8862 15.3696 19.838 15.2707C19.7328 15.055 19.5768 14.9976 19.3701 15.0984C19.3521 15.1071 19.3275 15.1136 19.2961 15.1178C19.2602 15.1353 19.2466 15.1531 19.2553 15.171L19.3227 15.1382L19.2816 15.225C19.2455 15.2649 19.2137 15.3137 19.1863 15.3716C19.1678 15.4251 19.174 15.4833 19.2047 15.5462L19.1507 15.5725C19.1687 15.5638 19.191 15.5752 19.2175 15.6067C19.1546 15.6374 19.1184 15.6773 19.109 15.7264L19.1961 15.734C19.1869 15.7607 19.1732 15.7897 19.155 15.8208C19.1324 15.8429 19.112 15.8696 19.0938 15.9007C19.0713 15.9228 19.0509 15.9494 19.0327 15.9806C19.0101 16.0027 18.9942 16.0272 18.985 16.0539C18.9212 16.174 18.9046 16.2655 18.9353 16.3285C18.9397 16.3374 18.9486 16.3442 18.962 16.3488C18.9753 16.3535 18.9887 16.3581 19.0021 16.3627C19.0244 16.3629 19.049 16.3676 19.0757 16.3768L18.9613 16.4159C18.9613 16.4159 18.9658 16.4137 18.9748 16.4094C18.9794 16.396 18.9862 16.3871 18.9952 16.3827C18.9592 16.4003 18.9344 16.4179 18.9208 16.4357C18.9029 16.4444 18.9073 16.4534 18.934 16.4626L18.9541 16.4695C18.9541 16.4695 18.9496 16.4717 18.9406 16.4761C18.9406 16.4761 18.9428 16.4806 18.9471 16.4896C18.9425 16.503 18.9424 16.5141 18.9468 16.5231L18.9199 16.5363C18.9058 16.5987 18.8918 16.6612 18.8778 16.7237C18.8727 16.7818 18.8722 16.8377 18.8761 16.8914C18.8796 16.9898 18.8696 17.0948 18.8462 17.2064L18.9734 17.2278L18.879 17.2738L18.8514 17.354L18.8843 17.4214L18.8363 17.5283L18.8698 17.5286L18.8468 17.8236L18.8129 17.8568L18.8655 17.9647L18.7961 18.1988L18.8359 18.2461L18.8089 18.2593L18.855 18.3536C18.8227 18.4472 18.8217 18.5479 18.852 18.6555C18.8868 18.7498 18.8947 18.8572 18.8756 18.9777L18.9565 18.9383L18.8816 19.0583L18.9013 19.0987C18.8967 19.1121 18.8988 19.1278 18.9075 19.1458C18.9251 19.1817 18.9404 19.2132 18.9536 19.2401C18.9757 19.2627 18.9978 19.2853 19.02 19.3079C19.0421 19.3305 19.0598 19.3552 19.0729 19.3822C19.0951 19.4048 19.1149 19.434 19.1324 19.47C19.1675 19.5419 19.2405 19.6231 19.3514 19.7137C19.4669 19.7908 19.5561 19.8141 19.6191 19.7834C19.7898 19.7001 19.9387 19.5719 20.0656 19.3987C20.1792 19.2209 20.3192 19.0859 20.4855 18.9936L20.6569 18.6263C20.7437 18.4394 20.8016 18.2387 20.8305 18.0243C20.8685 17.8055 20.9308 17.6026 21.0177 17.4157L21.0311 17.4091L20.991 17.3953C21.0005 17.3462 21.0146 17.2725 21.0335 17.1743C21.0523 17.0761 21.0553 17.0023 21.0423 16.953C21.047 16.9396 21.0427 16.9195 21.0295 16.8925C21.0208 16.8745 21.0187 16.8589 21.0233 16.8455C21.0193 16.7918 21.0353 16.7562 21.0713 16.7386C21.1072 16.7211 21.1362 16.7348 21.1581 16.7797C21.1713 16.8067 21.1755 16.8269 21.1709 16.8402C21.2148 16.9301 21.2379 17.0802 21.2403 17.2904C21.2473 17.4872 21.2101 17.6278 21.1288 17.7119L21.1485 17.7524C21.1255 17.8192 21.1112 17.9041 21.1057 18.0069C21.0823 18.1185 21.0472 18.2746 21.0005 18.4754C20.9628 18.6718 20.908 18.7876 20.8361 18.8227L20.7065 19.036L20.7328 19.09C20.7547 19.1349 20.7431 19.1795 20.6979 19.2238C20.6839 19.2863 20.6477 19.3262 20.5894 19.3435C20.5888 19.4106 20.5614 19.4684 20.5072 19.5171C20.4846 19.5392 20.4551 19.5814 20.4188 19.6437C20.4139 19.6794 20.3821 19.7283 20.3234 19.7903C20.2736 19.848 20.2374 19.8879 20.2149 19.91C20.1875 19.9679 20.1445 20.0167 20.086 20.0563C20.023 20.087 19.9691 20.1133 19.9242 20.1352L19.6276 20.2799ZM23.779 17.187C23.752 17.2002 23.7252 17.2021 23.6984 17.1929C23.6938 17.2063 23.6691 17.2239 23.6241 17.2459C23.5073 17.3029 23.351 17.279 23.1552 17.1742C22.9595 17.0694 22.8331 16.9585 22.7761 16.8417C22.6753 16.635 22.624 16.393 22.6223 16.1157L22.6164 15.3508C22.6177 15.2167 22.6096 15.1316 22.5921 15.0957C22.5921 15.0957 22.5521 15.0707 22.4721 15.0207L22.3718 14.9862C22.3451 14.977 22.3205 14.9722 22.2981 14.972C22.2804 14.9584 22.2581 14.947 22.2314 14.9378C22.1468 14.9012 22.0578 14.8556 21.9644 14.801C21.871 14.7464 21.789 14.6696 21.7185 14.5705C21.7093 14.5972 21.7017 14.6844 21.6958 14.8319C21.6898 14.9794 21.6817 15.1225 21.6714 15.261C21.6611 15.3996 21.638 15.4776 21.602 15.4951C21.584 15.5039 21.5684 15.506 21.555 15.5014C21.5416 15.4968 21.5259 15.4988 21.508 15.5076C21.49 15.5164 21.485 15.5633 21.4932 15.6483C21.4835 15.7198 21.4735 15.8248 21.4632 15.9634C21.4485 16.0929 21.4316 16.218 21.4126 16.3385C21.3935 16.4591 21.357 16.5325 21.303 16.5588C21.2671 16.5764 21.2404 16.5672 21.2228 16.5312C21.2097 16.5042 21.2035 16.446 21.2044 16.3566C21.2009 16.2582 21.2041 16.1621 21.214 16.0682C21.2284 15.961 21.2403 15.8941 21.2495 15.8673C21.2828 15.6619 21.3069 15.4833 21.3219 15.3314C21.3368 15.1794 21.345 15.0252 21.3465 14.8687C21.3435 14.7256 21.3404 14.5824 21.3374 14.4393C21.3389 14.2828 21.3429 14.1084 21.3492 13.9161C21.3058 13.7815 21.2692 13.6381 21.2394 13.4857C21.177 13.0155 21.1633 12.5882 21.1984 12.204C21.2381 11.8063 21.3206 11.3823 21.4458 10.9318C21.478 10.8382 21.5126 10.7267 21.5497 10.5974C21.5913 10.4547 21.6374 10.321 21.6878 10.1962C21.7382 10.0715 21.7949 9.9938 21.8578 9.96311C21.9117 9.93681 21.9856 9.92859 22.0794 9.93846C22.1242 9.9389 22.1644 9.94154 22.2001 9.94636C22.2358 9.95119 22.2716 9.95601 22.3073 9.96083L22.6493 9.97762C22.7745 9.98333 22.8655 10.0446 22.9225 10.1614C22.9444 10.2064 22.9531 10.2355 22.9485 10.2489C22.9697 10.3609 22.9325 10.5126 22.8367 10.704C22.7455 10.882 22.6385 11.0732 22.5157 11.2778C22.4019 11.4779 22.3174 11.6582 22.2622 11.8187C22.1705 12.0414 22.1101 12.2711 22.0809 12.5078C22.0518 12.7446 22.0382 12.9904 22.0401 13.2454C22.0487 13.2857 22.0505 13.3237 22.0457 13.3595C22.0499 13.3908 22.0562 13.4267 22.0648 13.467C22.0865 13.5343 22.0991 13.6172 22.1026 13.7156C22.1023 13.738 22.1043 13.7648 22.1085 13.7962C22.1083 13.8185 22.1147 13.8432 22.1279 13.8701C22.1498 13.9151 22.1696 13.9443 22.1874 13.9579C22.2095 13.9805 22.2316 14.0143 22.2535 14.0592C22.2798 14.1131 22.2928 14.1513 22.2926 14.1736C22.2968 14.205 22.312 14.2476 22.3383 14.3016C22.3865 14.4004 22.482 14.4707 22.6247 14.5123C22.763 14.545 22.9012 14.5889 23.0393 14.6439C23.1864 14.6945 23.2906 14.7828 23.352 14.9086C23.4046 15.0165 23.4322 15.1643 23.4348 15.3522C23.4375 15.5401 23.4311 15.7323 23.4157 15.9289C23.4004 16.1256 23.3964 16.3 23.4039 16.4521L23.4154 16.6468L23.4344 16.7543C23.4432 16.7723 23.4521 16.779 23.4611 16.7747L23.5078 16.802C23.5886 16.7625 23.6725 16.6493 23.7593 16.4623C23.8461 16.2753 23.9286 16.0794 24.0066 15.8744C24.0803 15.6604 24.1309 15.5134 24.1586 15.4331C24.2094 15.2637 24.2491 15.0941 24.2776 14.9245C24.3018 14.7458 24.3214 14.5693 24.3365 14.3951C24.3326 14.3414 24.3354 14.2788 24.3451 14.2073C24.3593 14.1225 24.3889 14.0691 24.4339 14.0472C24.4878 14.0209 24.5301 14.0392 24.5608 14.1021C24.5871 14.156 24.5903 14.288 24.5703 14.498C24.5549 14.6946 24.5306 14.8956 24.4973 15.101C24.4639 15.3064 24.4358 15.4426 24.4127 15.5094L24.4124 15.543L24.419 15.5564C24.4227 15.6325 24.402 15.6927 24.3568 15.737C24.3522 15.7503 24.3497 15.7794 24.3493 15.8241C24.3488 15.8688 24.3463 15.8979 24.3417 15.9112C24.3505 15.9292 24.3457 15.9538 24.3275 15.9849L24.2802 16.0247C24.2887 16.065 24.2771 16.1096 24.2453 16.1585L24.2039 16.2788C24.1949 16.2832 24.1926 16.2899 24.197 16.2989C24.2014 16.3079 24.1991 16.3146 24.1901 16.319C24.2074 16.3773 24.1846 16.4218 24.1217 16.4525C24.1212 16.4972 24.1162 16.5553 24.1065 16.6267C24.1059 16.6938 24.0831 16.7383 24.0381 16.7602C24.0239 16.8451 23.9808 16.905 23.9089 16.9401C23.9043 16.9535 23.9064 16.9691 23.9151 16.9871C23.9195 16.9961 23.9194 17.0073 23.9148 17.0206C23.9188 17.0744 23.8893 17.1165 23.8264 17.1472C23.8218 17.1606 23.806 17.1739 23.779 17.187ZM34.7368 13.0942C34.602 13.16 34.4744 13.1722 34.354 13.1307C34.2337 13.0893 34.1134 13.0367 33.9933 12.9729C33.9935 12.9505 33.9915 12.9348 33.9871 12.9258C33.9917 12.9125 33.994 12.9058 33.994 12.9058C33.9896 12.8968 33.974 12.8877 33.9473 12.8785C33.814 12.7877 33.7033 12.6748 33.6152 12.5398C33.5227 12.3958 33.4391 12.2585 33.3643 12.1281L33.3782 12.088C33.3304 11.9444 33.2781 11.803 33.2213 11.6638C33.1646 11.5246 33.1011 11.3831 33.031 11.2393C33.0003 11.1764 32.9921 11.1025 33.0063 11.0177L32.9997 11.0042C32.9908 11.0086 32.9841 11.0063 32.9797 10.9973L32.9731 10.9838C32.9643 10.9658 32.9645 10.9546 32.9734 10.9502C32.9167 10.811 32.8801 10.6676 32.8636 10.5198C32.826 10.26 32.7971 10.0071 32.7772 9.7609C32.7529 9.50573 32.7288 9.22821 32.7049 8.92833C32.7187 8.88821 32.7101 8.85906 32.6789 8.84086L32.6257 8.80008C32.5775 8.70122 32.5608 8.57583 32.5757 8.42391C32.5996 8.26762 32.6188 8.13587 32.6333 8.02868C32.6114 7.98374 32.5988 7.90087 32.5955 7.78009C32.5878 7.65032 32.5824 7.52504 32.5791 7.40425C32.5848 7.27908 32.5922 7.20312 32.6014 7.17638C32.5383 7.22943 32.5047 7.24027 32.5005 7.20893C32.5009 7.16421 32.5101 7.13746 32.5281 7.1287L32.5643 6.86071C32.5829 6.78487 32.577 6.70431 32.5466 6.61903C32.5295 6.53836 32.5169 6.4555 32.5088 6.37044C32.5007 6.28539 32.5372 6.21195 32.6183 6.15014C32.6275 6.1234 32.6501 6.10126 32.686 6.08372C32.7579 6.04865 32.8677 6.0229 33.0155 6.00647C33.1678 5.97667 33.3133 5.96692 33.4518 5.97723C33.5904 5.98754 33.6772 6.02865 33.7123 6.10055C33.7517 6.18144 33.7684 6.30683 33.7622 6.47672C33.7607 6.63324 33.7545 6.80313 33.7438 6.98639L33.6849 7.51578C33.6564 7.68545 33.646 7.83517 33.6536 7.96495L33.6267 7.9781L33.6464 8.01854L33.5842 8.19906L33.6105 8.25299L33.6036 8.27305C33.6253 8.34035 33.6447 8.41433 33.6618 8.495C33.6745 8.56668 33.6737 8.64494 33.6595 8.72978L33.572 8.75575C33.5751 8.89889 33.5568 8.9412 33.5171 8.88267C33.4864 8.81975 33.4785 8.71234 33.4934 8.56043L33.4468 8.53313C33.4459 8.62257 33.4473 8.70532 33.451 8.78139C33.4593 8.84408 33.4877 8.91369 33.5362 8.99019L33.5296 8.97671L33.5496 8.98362L33.5089 9.03688L33.5342 9.19143C33.5383 9.22278 33.5425 9.25412 33.5467 9.28547C33.5508 9.31682 33.5528 9.34367 33.5526 9.36603C33.5692 9.49142 33.5505 9.57845 33.4963 9.62711L33.5493 9.70143L33.568 9.84249C33.5807 9.91417 33.596 9.95681 33.6137 9.9704L33.5598 9.99671L33.5664 10.0102L33.5285 10.4459C33.5419 10.4505 33.553 10.4618 33.5617 10.4797C33.588 10.5337 33.605 10.6255 33.6127 10.7553C33.6068 10.9028 33.6146 11.0102 33.6363 11.0775C33.6361 11.0999 33.6359 11.1223 33.6357 11.1446C33.6444 11.1626 33.6621 11.1874 33.6886 11.2189L33.6686 11.212C33.6729 11.221 33.6773 11.23 33.6817 11.239C33.6951 11.2436 33.7018 11.2459 33.7018 11.2459L33.7281 11.2998C33.7851 11.4167 33.8153 11.5243 33.8188 11.6227C33.8311 11.7391 33.8635 11.8513 33.9161 11.9591C33.9424 12.013 33.9821 12.0716 34.0351 12.1347C34.0617 12.1663 34.0837 12.2 34.1012 12.236C34.1234 12.2586 34.1432 12.2878 34.1607 12.3238C34.187 12.3777 34.2023 12.4203 34.2064 12.4517C34.2062 12.4741 34.2127 12.4987 34.2258 12.5257C34.239 12.5526 34.2499 12.5751 34.2587 12.5931C34.2938 12.665 34.376 12.7195 34.5053 12.7565C34.6303 12.7846 34.7287 12.7811 34.8006 12.746C34.9084 12.6934 34.9761 12.6382 35.0035 12.5803C35.0127 12.5536 35.0264 12.5246 35.0446 12.4935C35.0674 12.449 35.0924 12.409 35.1196 12.3735L35.1212 12.2058L35.2001 12.3676L35.1932 12.3876C35.1965 12.5084 35.146 12.6443 35.0416 12.7954C34.9372 12.9464 34.8356 13.046 34.7368 13.0942ZM27.9971 16.2479C27.9792 16.2566 27.9433 16.263 27.8896 16.2669C27.8315 16.2619 27.7892 16.2436 27.7627 16.212L27.8031 16.1923C27.8167 16.1745 27.8348 16.1546 27.8574 16.1324C27.871 16.1147 27.8801 16.0991 27.8847 16.0858C27.8983 16.068 27.9164 16.048 27.9389 16.0259C27.9525 16.0082 27.9661 15.9904 27.9797 15.9726C28.0251 15.906 28.0485 15.8056 28.0498 15.6714C28.0511 15.5373 28.0412 15.403 28.0202 15.2686C28.0038 15.1209 27.9914 15.0157 27.9831 14.953L27.938 14.758C27.9205 14.722 27.9052 14.6906 27.892 14.6636C27.8878 14.6323 27.8837 14.6009 27.8795 14.5696C27.8583 14.4576 27.8437 14.3478 27.8358 14.2404C27.8369 14.1286 27.838 14.0168 27.8391 13.905C27.8393 13.8827 27.8241 13.84 27.7934 13.7771C27.7717 13.7098 27.7543 13.6627 27.7411 13.6357C27.7322 13.6401 27.7143 13.6377 27.6875 13.6285C27.6742 13.6239 27.6653 13.6171 27.6609 13.6081C27.6521 13.5901 27.6523 13.5789 27.6612 13.5746C27.6575 13.4985 27.6561 13.4157 27.657 13.3263C27.6625 13.2235 27.6968 13.1456 27.7599 13.0925C27.756 13.0388 27.7565 12.9829 27.7616 12.9248C27.7666 12.8667 27.7672 12.8108 27.7632 12.7571C27.7593 12.7034 27.762 12.652 27.7715 12.6029C27.7765 12.5448 27.777 12.4889 27.7731 12.4352L27.7169 12.012C27.7042 11.9403 27.6937 11.8731 27.6853 11.8105C27.6816 11.7344 27.6846 11.6606 27.6942 11.5892L27.6538 11.6089L27.5874 11.5411L27.6019 11.4339L27.4943 11.453C27.5169 11.4309 27.5328 11.4064 27.542 11.3797L27.5354 11.3662C27.4953 11.3524 27.4687 11.332 27.4555 11.305C27.4468 11.2871 27.4469 11.2759 27.4559 11.2715C27.4563 11.2268 27.4544 11.1888 27.4503 11.1574C27.4417 11.1171 27.4332 11.0767 27.4246 11.0364C27.4075 10.9557 27.4105 10.882 27.4335 10.8151L27.4066 10.8283C27.411 10.8372 27.3997 10.8483 27.3727 10.8615C27.3547 10.8702 27.3392 10.8611 27.326 10.8342C27.3041 10.7892 27.289 10.7354 27.2806 10.6727C27.2679 10.601 27.2596 10.5383 27.2557 10.4846C27.243 10.4129 27.2302 10.3413 27.2175 10.2696C27.2048 10.1979 27.1831 10.1306 27.1524 10.0677C27.1349 10.0317 27.1173 10.007 27.0995 9.99337C27.064 9.96619 27.0397 9.93911 27.0265 9.91215C27.009 9.8762 27.0094 9.83148 27.0278 9.77799C27.046 9.74686 27.062 9.71124 27.0758 9.67113C27.0132 9.67945 26.9684 9.67901 26.9417 9.6698C26.9106 9.65161 26.8703 9.64897 26.821 9.6619L26.8075 9.66848L26.6596 9.70727L26.532 9.71943C26.4783 9.72337 26.4448 9.71186 26.4317 9.6849C26.4185 9.65794 26.4301 9.62451 26.4662 9.58461C26.5114 9.54033 26.5363 9.51151 26.5409 9.49814C26.6799 9.46373 26.8592 9.42077 27.0788 9.36927C27.3075 9.31339 27.527 9.27306 27.7375 9.24831C27.9479 9.22355 28.0998 9.23846 28.1932 9.29305C28.2287 9.32024 28.2552 9.3518 28.2728 9.38776C28.2949 9.41034 28.3125 9.43511 28.3257 9.46207C28.3564 9.52499 28.382 9.64599 28.4026 9.82509C28.4322 9.9998 28.4439 10.1721 28.4378 10.342C28.4272 10.5029 28.3881 10.6166 28.3204 10.683L28.3404 10.6899L28.4404 10.7579C28.4847 10.8031 28.5068 10.8257 28.5068 10.8257C28.5199 10.8527 28.5263 10.8885 28.5259 10.9332C28.53 10.9646 28.5163 10.9935 28.4848 11.02L28.4778 11.0401C28.4822 11.0491 28.4821 11.0602 28.4775 11.0736C28.4729 11.087 28.475 11.1027 28.4838 11.1206C28.4969 11.1476 28.5012 11.1678 28.4966 11.1811L28.5101 11.1746L28.5364 11.2285C28.5627 11.2824 28.5554 11.336 28.5147 11.3893C28.5276 11.4386 28.5356 11.5348 28.5386 11.678C28.5463 11.8078 28.5432 11.8927 28.5294 11.9328L28.5149 12.04C28.5283 12.0446 28.5372 12.0514 28.5416 12.0604C28.5547 12.0874 28.5523 12.1052 28.5343 12.114L28.5205 12.1541C28.5247 12.1855 28.5176 12.2279 28.4991 12.2814C28.4989 12.3037 28.4942 12.3283 28.485 12.355C28.4804 12.3684 28.478 12.3863 28.4778 12.4086C28.4545 12.4978 28.4694 12.574 28.5225 12.6371L28.509 12.6437C28.5178 12.6617 28.5175 12.6841 28.5083 12.7108C28.5079 12.7555 28.5051 12.8069 28.5001 12.865C28.4951 12.9231 28.4723 12.9676 28.4317 12.9985C28.4402 13.0388 28.451 13.0837 28.4639 13.133C28.4725 13.1733 28.4766 13.2047 28.4764 13.227C28.4762 13.2494 28.4782 13.2763 28.4823 13.3076C28.4821 13.33 28.4819 13.3523 28.4817 13.3747L28.4935 13.5358C28.5011 13.6656 28.5155 13.7977 28.5365 13.932C28.5532 14.0574 28.5742 14.1918 28.5996 14.3352L28.6401 14.3154C28.6445 14.3244 28.6512 14.3267 28.6601 14.3223C28.7051 14.3004 28.7324 14.2537 28.742 14.1823C28.7473 14.1018 28.7278 14.039 28.6835 13.9939C28.7197 13.954 28.7402 13.9162 28.745 13.8804C28.768 13.8136 28.793 13.7736 28.82 13.7604C28.843 13.6935 28.8636 13.6446 28.8818 13.6134L28.9302 13.473C29.0036 13.2814 29.0503 13.0806 29.0703 12.8706C29.0801 12.7768 29.0945 12.6808 29.1134 12.5826C29.1368 12.471 29.1647 12.3684 29.1969 12.2748C29.225 12.1499 29.253 12.0249 29.2811 11.9C29.3182 11.7706 29.344 11.6412 29.3587 11.5117C29.3734 11.3821 29.3903 11.257 29.4094 11.1365C29.4374 11.0115 29.4655 10.8866 29.4936 10.7616C29.5214 10.659 29.5493 10.5564 29.5771 10.4539C29.6006 10.3423 29.6129 10.2306 29.614 10.1188C29.5872 10.1096 29.5695 10.096 29.5607 10.078C29.5388 10.0331 29.553 9.94825 29.6035 9.82352C29.6495 9.6898 29.709 9.54951 29.782 9.40264C29.864 9.25139 29.9414 9.11351 30.0142 8.989C30.096 8.86011 30.1549 8.77572 30.1911 8.73582C30.2181 8.72267 30.2699 8.68069 30.3467 8.60989C30.4324 8.53471 30.4842 8.49273 30.5022 8.48397L30.5426 8.46424C30.5909 8.56311 30.6324 8.65967 30.6672 8.75393C30.7111 8.84381 30.7371 8.93128 30.7452 9.01634C30.7577 9.11038 30.7656 9.20661 30.7691 9.30504C30.7816 9.39908 30.7896 9.49532 30.7931 9.59374C30.8135 9.7952 30.825 9.98986 30.8276 10.1777L30.8641 10.5605C30.8724 10.6232 30.8763 10.6881 30.8756 10.7551C30.8749 10.8222 30.8766 10.8826 30.8805 10.9363L30.8923 11.0974C30.9053 11.1468 30.9025 11.1982 30.8841 11.2516C30.8885 11.2606 30.8928 11.2808 30.8969 11.3122C30.9057 11.3301 30.9122 11.3548 30.9163 11.3861C30.9433 11.373 30.9681 11.3553 30.9907 11.3332C30.9979 11.5077 31.0121 11.6509 31.0334 11.763C31.0502 11.866 31.0915 11.9961 31.157 12.1533C31.1947 11.9569 31.2347 11.7538 31.277 11.544C31.324 11.3208 31.3566 11.1825 31.3751 11.129C31.4389 11.0089 31.5006 10.8731 31.5602 10.7216C31.6198 10.5702 31.675 10.4209 31.7256 10.2738C31.7532 10.1936 31.7809 10.1133 31.8085 10.0331C31.8361 9.95287 31.8593 9.87483 31.8779 9.79899C31.8965 9.72314 31.9174 9.65179 31.9404 9.58493C31.968 9.5047 31.9933 9.43116 32.0163 9.3643C32.0348 9.31081 32.0487 9.25952 32.0581 9.21041C32.0765 9.15693 32.0905 9.10563 32.0999 9.05653C32.1098 8.96271 32.1331 8.86231 32.1699 8.75534C32.1976 8.67511 32.2119 8.57909 32.213 8.4673C32.2135 8.42258 32.2139 8.37786 32.2144 8.33314C32.2148 8.28842 32.2242 8.23932 32.2426 8.18583L32.291 8.04543C32.3094 7.99194 32.3321 7.95862 32.3591 7.94547C32.395 7.92794 32.4239 7.94164 32.4459 7.98658C32.5029 8.10342 32.5033 8.28679 32.4471 8.53669C32.3866 8.7776 32.3354 8.98059 32.2936 9.14565C32.2751 9.19914 32.2634 9.25493 32.2584 9.31302C32.2489 9.36212 32.2417 9.41572 32.2367 9.47381C32.2176 9.59437 32.1896 9.70814 32.1528 9.81512L32.0068 10.3369C31.9377 10.5375 31.8912 10.716 31.8673 10.8722C31.8292 11.1134 31.7887 11.3612 31.7459 11.6157C31.7078 11.8568 31.6451 12.0932 31.5578 12.3249C31.5072 12.472 31.4833 12.6283 31.4861 12.7938C31.4979 12.955 31.5076 13.1116 31.515 13.2637C31.5591 13.3312 31.5853 13.3963 31.5936 13.459C31.5975 13.5127 31.5501 13.5637 31.4512 13.6119C31.3613 13.6558 31.2692 13.6951 31.175 13.73C31.0763 13.7558 30.9782 13.7258 30.8807 13.6399C30.8629 13.6263 30.8273 13.6103 30.7738 13.5918C30.7381 13.587 30.7115 13.5666 30.6939 13.5307C30.6895 13.5217 30.6897 13.5105 30.6943 13.4971L30.6811 13.4702L30.7423 13.3903L30.7357 13.3768C30.7048 13.3362 30.6739 13.2957 30.643 13.2551C30.6211 13.2102 30.5991 13.1652 30.5772 13.1203C30.5334 13.0304 30.4962 12.9428 30.4658 12.8576C30.4309 12.7633 30.4006 12.6669 30.3747 12.5682C30.3532 12.4785 30.3317 12.3889 30.3103 12.2992C30.2844 12.2006 30.2541 12.1041 30.2192 12.0099C30.2372 12.0011 30.2328 11.9921 30.2061 11.9829C30.1364 11.7944 30.0936 11.5927 30.0779 11.3779C30.0621 11.163 30.044 10.9549 30.0236 10.7534C30.0079 10.5386 29.9605 10.3503 29.8816 10.1885L29.8553 10.1346C29.859 10.2107 29.8494 10.2821 29.8264 10.349C29.8259 10.3937 29.8233 10.4339 29.8185 10.4697C29.8136 10.5054 29.8043 10.5433 29.7905 10.5834L29.7632 10.6301C29.7358 10.688 29.7328 10.7618 29.7543 10.8514C29.7629 10.8917 29.7669 10.9343 29.7665 10.979C29.7617 11.0147 29.759 11.0549 29.7586 11.0997C29.7584 11.122 29.7444 11.1733 29.7168 11.2536L29.6895 11.3002C29.6713 11.3314 29.6598 11.3648 29.655 11.4005C29.6502 11.4363 29.6431 11.4675 29.6339 11.4942C29.6326 11.6284 29.6112 11.7557 29.5698 11.876C29.5468 11.9429 29.5259 12.0142 29.5073 12.0901C29.4933 12.1525 29.4748 12.2172 29.4517 12.2841L29.4373 12.3912C29.4188 12.4447 29.4117 12.4871 29.4159 12.5185L29.3922 12.8805C29.3917 12.9252 29.3846 12.9677 29.3708 13.0078C29.357 13.0479 29.3455 13.0813 29.3363 13.1081C29.2953 13.1837 29.2721 13.2617 29.2669 13.3422C29.2243 13.5743 29.1976 13.7932 29.1866 13.9988C29.1765 14.115 29.1552 14.2311 29.1228 14.347C29.0949 14.4496 29.0626 14.5544 29.0258 14.6614C29.0074 14.7149 28.9912 14.7617 28.9774 14.8018C28.9636 14.8419 28.9543 14.8798 28.9495 14.9156C28.9446 14.9513 28.9353 14.9892 28.9215 15.0293C28.9077 15.0694 28.8962 15.1029 28.887 15.1296L28.7558 15.5107C28.6689 15.6977 28.5737 15.8331 28.47 15.9171C28.3575 15.9831 28.2224 16.0824 28.0645 16.215L27.9971 16.2479ZM28.3666 12.7966L28.3801 12.79C28.3939 12.7499 28.4009 12.7187 28.4011 12.6963L28.408 12.6763L28.3548 12.6355C28.3589 12.6668 28.3631 12.6982 28.3673 12.7295C28.367 12.7519 28.3668 12.7743 28.3666 12.7966ZM31.0928 12.535C31.1021 12.5083 31.1068 12.4837 31.107 12.4614C31.1118 12.4256 31.1166 12.3899 31.1215 12.3542C31.1125 12.3586 31.0944 12.3785 31.0672 12.414C31.067 12.4364 31.0668 12.4587 31.0665 12.4811C31.0663 12.5035 31.0751 12.5214 31.0928 12.535ZM36.4405 12.0797C36.3416 12.1279 36.2362 12.1627 36.1241 12.1839C35.954 12.2001 35.7379 12.122 35.4757 11.9494L35.5704 11.8699L35.4432 11.8485L35.1709 11.564L35.1575 11.5706C35.1353 11.548 35.1111 11.5098 35.0848 11.4559L35.0388 11.3615C35.0212 11.3255 35.013 11.2517 35.0141 11.1399C35.0152 11.0281 35.014 10.923 35.0105 10.8245L34.8888 10.9172L34.856 10.8498C34.8606 10.8365 34.8631 10.8074 34.8635 10.7627C34.8594 10.7314 34.8731 10.7024 34.9046 10.6759C34.918 10.6805 34.9291 10.6918 34.9379 10.7098L34.9517 10.6697L34.9188 10.6022C34.9013 10.5663 34.8837 10.5303 34.8662 10.4944C34.8533 10.4451 34.8537 10.4003 34.8675 10.3602C34.8412 10.3063 34.8304 10.2727 34.835 10.2593L34.8221 10.1988L34.8491 10.1856L34.8228 10.1317L34.8511 9.98439C34.8741 9.91753 34.8901 9.88191 34.8991 9.87753L34.8925 9.86404C34.8879 9.87742 34.8766 9.88849 34.8587 9.89725C34.8227 9.91479 34.796 9.90558 34.7784 9.86963C34.774 9.86064 34.7742 9.84946 34.7788 9.83609L34.7459 9.76868C34.7505 9.75531 34.744 9.73065 34.7265 9.69469C34.7089 9.65874 34.6868 9.63616 34.6601 9.62695L34.7018 9.47307L34.7623 9.46025L34.7423 9.45334L34.7692 9.44019L34.7761 9.42013L34.7443 9.25211L34.8643 9.32708L34.7929 9.07816C34.78 9.02884 34.7671 8.97952 34.7541 8.93019C34.7412 8.88087 34.7283 8.83155 34.7154 8.78222L34.8571 8.69641L34.8045 8.58856L34.764 8.60828L34.7312 8.54087L34.7657 8.44058L34.7723 8.45407L34.7792 8.43401L34.7463 8.3666L34.8282 8.22653L34.8019 8.1726C34.8473 8.10596 34.8705 8.01674 34.8716 7.90495C34.8679 7.82888 34.9111 7.75775 35.0012 7.69155L34.9203 7.73101L34.9272 7.71095L34.893 7.7777L34.8404 7.66984L34.8673 7.65669L34.8677 7.62315L34.8811 7.61657L34.8818 7.5495L34.8489 7.48209C34.8853 7.41983 34.9173 7.34859 34.945 7.26836C34.9816 7.18375 34.9845 7.10998 34.9539 7.04707L34.9881 6.98032L34.9617 6.92639L35.0288 6.92705L35.1252 6.67979L35.0989 6.62586L35.1739 6.50584L35.1883 6.39865C35.1752 6.37169 35.1821 6.35163 35.2091 6.33848C35.218 6.3341 35.2404 6.33432 35.2761 6.33914C35.3165 6.33059 35.3478 6.32643 35.3702 6.32665L35.4511 6.2872C35.5949 6.21706 35.765 6.20085 35.9614 6.23856C36.1534 6.26729 36.3339 6.32945 36.5029 6.42503C36.672 6.52062 36.7915 6.64032 36.8617 6.78412C36.8836 6.82906 36.919 6.86743 36.9679 6.89922C36.99 6.9218 37.0077 6.94657 37.0208 6.97353C37.0429 6.99611 37.0628 7.02538 37.0803 7.06133L37.1066 7.11526C37.1242 7.15121 37.1306 7.17587 37.126 7.18924C37.1486 7.62328 37.0792 8.08549 36.9178 8.57585C36.7654 9.06184 36.5645 9.48249 36.315 9.83782C36.2606 9.90884 36.1973 9.98425 36.1249 10.064C36.0526 10.1438 35.9715 10.2056 35.8816 10.2495C35.8546 10.2626 35.8345 10.2669 35.8211 10.2623L35.7136 10.2814C35.7361 10.2592 35.7656 10.217 35.802 10.1548C35.8156 10.137 35.8292 10.1193 35.8428 10.1015C35.8564 10.0838 35.87 10.066 35.8836 10.0482L35.9447 9.96834C35.9627 9.95957 35.974 9.9485 35.9786 9.93513L35.9585 9.92823C35.941 9.89227 35.9547 9.86334 35.9997 9.84142C36.036 9.77917 36.07 9.73478 36.1016 9.70826L36.2167 9.60205C36.2618 9.55778 36.3002 9.52238 36.3318 9.49585C36.368 9.45596 36.3773 9.41803 36.3597 9.38208C36.3825 9.33758 36.399 9.25724 36.4091 9.14106C36.4194 9.00252 36.4314 8.91319 36.4453 8.87308L36.5534 8.78693L36.5896 8.51895L36.5364 8.47817L36.6179 8.37164L36.5916 8.31771L36.6186 8.30456C36.6648 8.14849 36.6952 8.01685 36.7097 7.90966C36.7288 7.78909 36.7257 7.64595 36.7005 7.48022C36.6917 7.46225 36.7008 7.44668 36.7278 7.43353L36.7212 7.42005C36.7225 7.28589 36.6991 7.16938 36.6509 7.07051C36.5457 6.8548 36.3897 6.79736 36.183 6.89818C36.165 6.90695 36.1403 6.91342 36.109 6.91758C36.073 6.93511 36.0595 6.95287 36.0682 6.97085L36.1356 6.93797L36.0945 7.02477C36.0583 7.06467 36.0266 7.11355 35.9992 7.17142C35.9807 7.22491 35.9869 7.28311 36.0176 7.34602L35.9636 7.37233C35.9816 7.36356 36.0039 7.37496 36.0304 7.40653C35.9675 7.43721 35.9313 7.47711 35.9219 7.52621L36.009 7.53378C35.9998 7.56052 35.9861 7.58946 35.9679 7.62058C35.9453 7.64272 35.9249 7.66936 35.9067 7.70048C35.8841 7.72262 35.8638 7.74925 35.8456 7.78038C35.823 7.80252 35.8071 7.82696 35.7979 7.85371C35.7341 7.97383 35.7175 8.06535 35.7482 8.12827C35.7526 8.13725 35.7615 8.14405 35.7748 8.14865C35.7882 8.15326 35.8016 8.15786 35.815 8.16247C35.8373 8.16269 35.8619 8.1674 35.8886 8.17661L35.7742 8.21573C35.7742 8.21573 35.7787 8.21354 35.7877 8.20916C35.7923 8.19579 35.7991 8.18691 35.8081 8.18252C35.7721 8.20006 35.7473 8.2177 35.7337 8.23546C35.7158 8.24423 35.7201 8.25321 35.7469 8.26242L35.7669 8.26933C35.7669 8.26933 35.7625 8.27152 35.7535 8.2759C35.7535 8.2759 35.7557 8.2804 35.76 8.28939C35.7554 8.30276 35.7553 8.31394 35.7597 8.32293L35.7327 8.33608C35.7187 8.39855 35.7047 8.46103 35.6906 8.5235C35.6856 8.58159 35.685 8.63749 35.689 8.6912C35.6925 8.78962 35.6825 8.89463 35.659 9.0062L35.7863 9.02758L35.6919 9.07361L35.6643 9.15384L35.6972 9.22125L35.6492 9.32812L35.6827 9.32845L35.6597 9.62339L35.6258 9.6566L35.6784 9.76446L35.609 9.99857L35.6488 10.0459L35.6218 10.0591L35.6679 10.1534C35.6356 10.2471 35.6346 10.3477 35.6649 10.4553C35.6997 10.5496 35.7076 10.657 35.6885 10.7775L35.7694 10.7381L35.6945 10.8581L35.7142 10.8986C35.7096 10.9119 35.7117 10.9276 35.7204 10.9456C35.738 10.9815 35.7533 11.013 35.7665 11.0399C35.7886 11.0625 35.8107 11.0851 35.8329 11.1077C35.855 11.1303 35.8727 11.155 35.8858 11.182C35.9079 11.2046 35.9278 11.2338 35.9453 11.2698C35.9804 11.3417 36.0534 11.4229 36.1643 11.5135C36.2798 11.5906 36.369 11.6139 36.4319 11.5832C36.6027 11.4999 36.7516 11.3717 36.8785 11.1985C36.9921 11.0207 37.132 10.8857 37.2984 10.7934L37.4698 10.4261C37.5566 10.2392 37.6145 10.0385 37.6434 9.82409C37.6814 9.60532 37.7437 9.40244 37.8305 9.21546L37.844 9.20888L37.8039 9.19507C37.8133 9.14597 37.8275 9.07231 37.8463 8.97411C37.8652 8.8759 37.8682 8.80214 37.8552 8.75281C37.8598 8.73944 37.8556 8.71927 37.8424 8.69231C37.8337 8.67433 37.8316 8.65866 37.8362 8.64529C37.8322 8.59158 37.8482 8.55596 37.8842 8.53843C37.9201 8.52089 37.9491 8.53459 37.971 8.57953C37.9841 8.6065 37.9884 8.62666 37.9838 8.64004C38.0276 8.72992 38.0508 8.87997 38.0532 9.09019C38.0602 9.28704 38.023 9.42756 37.9417 9.51173L37.9614 9.55218C37.9384 9.61903 37.9241 9.70387 37.9186 9.80668C37.8952 9.91826 37.8601 10.0744 37.8134 10.2752C37.7757 10.4716 37.7209 10.5874 37.649 10.6225L37.5194 10.8359L37.5457 10.8898C37.5676 10.9347 37.556 10.9793 37.5108 11.0236C37.4968 11.0861 37.4606 11.126 37.4023 11.1433C37.4017 11.2104 37.3743 11.2682 37.3201 11.3169C37.2975 11.339 37.268 11.3812 37.2316 11.4435C37.2268 11.4792 37.195 11.5281 37.1363 11.5901C37.0865 11.6478 37.0503 11.6877 37.0278 11.7098C37.0004 11.7677 36.9574 11.8165 36.8989 11.8561C36.8359 11.8868 36.782 11.9131 36.7371 11.935L36.4405 12.0797Z" fill="#CBCBCB"/>
</svg>
