<svg width="1629" height="497" viewBox="0 0 1629 497" fill="none" xmlns="http://www.w3.org/2000/svg">
<path fill-rule="evenodd" clip-rule="evenodd" d="M1079 309V497H1114V309H1566V497H1629V0H0V497H63V309H515V497H550V309H1079ZM63 59V291H272V244H305V291H515V244H550V291H1079V244H1114V291H1324V244H1357V291H1566V59H1546V28H1112V59H1030V28H599V59H517V28H83V59H63ZM1110 493H1083V248H1110V493ZM1324 305H1114V295H1324V305ZM1328 248H1353V305H1328V248ZM1570 493H1625V4H1550V55H1570V493ZM1566 295H1357V305H1566V295ZM813 25V3H600V25H813ZM816 3V25H1029V3H816ZM301 305V248H276V305H301ZM515 305V295H305V305H515ZM519 493H546V248H519V493ZM63 305V295H272V305H63ZM59 493H4V4H79V55H59V493ZM84 3H516V25H84V3ZM521 4H595V55H521V4ZM812 295H553V305H812V295ZM1113 3H1545V25H1113V3ZM1034 4H1108V55H1034V4ZM1076 295H817V305H1076V295Z" fill="white" fill-opacity="0.8"/>
</svg>
