<svg width="42" height="71" viewBox="0 0 42 71" fill="none" xmlns="http://www.w3.org/2000/svg">
<path d="M0 0H7V71H0V0Z" fill="black"/>
<path d="M7 4H14V11H7V4Z" fill="black"/>
<path d="M21 18H28V25H21V18Z" fill="black"/>
<path d="M28 25H35V32H28V25Z" fill="black"/>
<path d="M14 11H21V18H14V11Z" fill="black"/>
<path d="M35 32H42V39H35V32Z" fill="black"/>
<path d="M28 39H35V46H28V39Z" fill="black"/>
<path d="M21 46H28V53H21V46Z" fill="black"/>
<path d="M14 53H21V60H14V53Z" fill="black"/>
<path d="M7 60H14V67H7V60Z" fill="black"/>
</svg>
