<svg width="168" height="104" viewBox="0 0 168 104" fill="none" xmlns="http://www.w3.org/2000/svg">
<path fill-rule="evenodd" clip-rule="evenodd" d="M2 5C2 2.23858 4.23858 0 7 0H161C163.761 0 166 2.23858 166 5V65H167C167.552 65 168 65.4477 168 66V94C168 94.5523 167.552 95 167 95H166V99C166 101.761 163.761 104 161 104H7C4.23857 104 2 101.761 2 99V95H0.999999C0.447714 95 0 94.5523 0 94V66C0 65.4477 0.447715 65 1 65H2V5ZM7.5 8C8.88071 8 10 6.88071 10 5.5C10 4.11929 8.88071 3 7.5 3C6.11929 3 5 4.11929 5 5.5C5 6.88071 6.11929 8 7.5 8ZM7.5 101C8.88071 101 10 99.8807 10 98.5C10 97.1193 8.88071 96 7.5 96C6.11929 96 5 97.1193 5 98.5C5 99.8807 6.11929 101 7.5 101ZM163 5.5C163 6.88071 161.881 8 160.5 8C159.119 8 158 6.88071 158 5.5C158 4.11929 159.119 3 160.5 3C161.881 3 163 4.11929 163 5.5ZM160.5 101C161.881 101 163 99.8807 163 98.5C163 97.1193 161.881 96 160.5 96C159.119 96 158 97.1193 158 98.5C158 99.8807 159.119 101 160.5 101ZM14 18C14 12.4772 18.4772 8 24 8H144C149.523 8 154 12.4772 154 18V30H14V18ZM16 34H152V73H16L16 34ZM14 32H16H152H154V34V73C154 74.1046 153.105 75 152 75H16C14.8954 75 14 74.1046 14 73V34V32ZM58 48.5C58 53.1944 54.1944 57 49.5 57C44.8056 57 41 53.1944 41 48.5C41 43.8056 44.8056 40 49.5 40C54.1944 40 58 43.8056 58 48.5ZM118.5 57C123.194 57 127 53.1944 127 48.5C127 43.8056 123.194 40 118.5 40C113.806 40 110 43.8056 110 48.5C110 53.1944 113.806 57 118.5 57ZM119 37.5H49C43.201 37.5 38.5 42.201 38.5 48V49C38.5 54.799 43.201 59.5 49 59.5H119C124.799 59.5 129.5 54.799 129.5 49V48C129.5 42.201 124.799 37.5 119 37.5ZM49 35C41.8203 35 36 40.8203 36 48V49C36 56.1797 41.8203 62 49 62H119C126.18 62 132 56.1797 132 49V48C132 40.8203 126.18 35 119 35H49ZM18 58H31V71H18V58ZM21.2677 68.8636V60.1364H24.3785C25.0547 60.1364 25.6157 60.2528 26.0618 60.4858C26.5106 60.7188 26.8458 61.0412 27.0674 61.4531C27.2891 61.8622 27.3998 62.3352 27.3998 62.8721C27.3998 63.4062 27.2876 63.8764 27.0631 64.2827C26.8416 64.6861 26.5063 65 26.0575 65.2244C25.9757 65.2656 25.8901 65.303 25.8007 65.3365L27.7322 68.8636H26.2322L24.4591 65.5605C24.431 65.5609 24.4027 65.5611 24.3743 65.5611H22.5845V68.8636H21.2677ZM24.2549 64.4276H22.5845V61.2656H24.2379C24.6725 61.2656 25.0234 61.3309 25.2904 61.4616C25.5603 61.5895 25.7578 61.7741 25.8828 62.0156C26.0106 62.2571 26.0745 62.5426 26.0745 62.8721C26.0745 63.1989 26.012 63.4787 25.887 63.7116C25.762 63.9446 25.5646 64.1221 25.2947 64.2443C25.0276 64.3665 24.681 64.4276 24.2549 64.4276ZM46.6375 79.5559C46.8063 79.2154 47.1535 79 47.5335 79H85H122.467C122.847 79 123.194 79.2154 123.362 79.5559L132.284 97.5559C132.614 98.2206 132.13 99 131.388 99H85H38.6117C37.8699 99 37.3863 98.2206 37.7158 97.5559L46.6375 79.5559Z" fill="black"/>
</svg>
